<?xml version="1.0" standalone="no"?>
<!DOCTYPE svg PUBLIC "-//W3C//DTD SVG 20010904//EN"
 "http://www.w3.org/TR/2001/REC-SVG-20010904/DTD/svg10.dtd">
<svg version="1.0" xmlns="http://www.w3.org/2000/svg"
 width="512.000000pt" height="512.000000pt" viewBox="0 0 512.000000 512.000000"
 preserveAspectRatio="xMidYMid meet">
<metadata>
Created by potrace 1.14, written by Peter Selinger 2001-2017
</metadata>
<g transform="translate(0.000000,512.000000) scale(0.100000,-0.100000)"
fill="#000000" stroke="none">
<path d="M3151 4528 c-52 -17 -149 -74 -216 -125 -16 -13 -35 -27 -40 -31
-107 -78 -320 -277 -411 -382 -239 -280 -441 -634 -549 -965 -29 -87 -34 -116
-32 -179 3 -67 7 -81 35 -121 18 -25 32 -51 32 -58 0 -7 -24 -41 -53 -77 -64
-80 -109 -164 -147 -272 -29 -86 -77 -297 -82 -361 -1 -22 -8 -38 -15 -38 -38
-4 -60 -18 -72 -47 -10 -25 -75 -280 -85 -334 -10 -55 -27 -108 -34 -104 -24
14 -254 31 -427 31 -316 -1 -505 -34 -624 -109 -149 -95 -207 -271 -136 -420
29 -61 149 -191 213 -230 109 -68 279 -71 386 -8 l32 19 38 -33 c39 -34 89
-48 162 -45 53 1 92 15 234 84 63 30 131 58 150 63 90 20 172 9 343 -45 67
-22 150 -44 182 -50 33 -6 71 -13 85 -16 120 -24 624 -23 830 1 89 11 242 45
305 69 l64 24 132 -45 c131 -45 345 -109 397 -119 376 -73 641 -9 832 199 79
85 98 111 126 166 36 71 51 134 49 200 -4 167 -116 285 -315 334 -128 31 -238
41 -445 41 -184 0 -261 -7 -375 -30 -36 -8 -65 -13 -66 -12 -1 1 -9 25 -17 52
-8 28 -40 131 -70 230 -180 591 -287 1010 -324 1275 -7 51 -7 89 3 175 9 92
-8 125 -87 163 -35 16 -77 41 -93 55 l-30 24 57 36 c31 20 82 62 113 94 l56
57 36 -44 c97 -119 223 -212 336 -250 l39 -13 -39 -36 c-67 -63 -132 -100
-219 -127 -33 -10 -65 -22 -71 -26 -21 -15 -23 -48 -4 -70 20 -26 45 -26 180
-3 146 26 244 50 381 96 121 41 190 85 224 142 77 132 33 295 -126 468 -13 14
-49 54 -79 89 -30 35 -64 73 -75 85 -11 11 -47 52 -80 90 -33 39 -64 75 -70
81 -5 6 -39 44 -75 84 -181 205 -248 272 -294 294 -50 24 -114 25 -175 4z
m123 -97 c29 -12 86 -67 181 -176 39 -44 79 -89 90 -101 11 -11 34 -36 50 -55
78 -89 171 -195 180 -205 6 -6 34 -38 62 -70 29 -32 64 -72 78 -89 62 -70 108
-137 124 -182 16 -42 18 -67 12 -134 -2 -27 -55 -77 -104 -98 -45 -20 -205
-71 -220 -71 -4 0 13 25 38 55 25 31 45 59 45 64 0 4 11 21 25 37 67 77 81
167 29 180 -36 9 -53 -1 -74 -48 -10 -24 -27 -53 -37 -66 l-19 -23 -67 25
c-124 46 -239 140 -315 253 -36 54 -36 56 -33 148 3 102 -11 170 -35 179 -51
20 -87 -11 -75 -64 12 -58 4 -185 -14 -224 -28 -58 -126 -149 -202 -185 -37
-18 -75 -36 -83 -41 -8 -4 -19 -20 -25 -35 -9 -26 -6 -31 45 -77 48 -43 160
-123 182 -130 7 -3 -7 -156 -15 -164 -12 -12 -85 -8 -129 7 -29 11 -61 16 -71
13 -26 -8 -40 -50 -25 -74 19 -30 98 -58 161 -56 l57 1 36 -150 c57 -240 159
-670 188 -800 15 -66 30 -127 32 -136 3 -13 -11 -23 -59 -42 -61 -24 -231 -74
-286 -83 -14 -3 -50 -9 -79 -14 -30 -5 -91 -12 -136 -16 l-81 -6 -18 40 c-33
76 -74 90 -297 99 -313 13 -353 6 -393 -71 -18 -34 -22 -36 -51 -30 -44 9
-149 52 -156 64 -15 25 53 330 102 455 36 92 63 138 127 215 25 30 46 56 46
57 0 1 27 -7 59 -18 104 -34 200 -22 212 26 11 45 -18 65 -90 62 -163 -5 -259
103 -228 258 33 163 215 537 365 750 115 163 171 228 317 375 160 160 323 289
444 350 63 32 89 36 130 21z m-741 -2627 c43 -8 56 -16 64 -42 10 -30 10 -141
-1 -299 -9 -137 -24 -285 -29 -289 -1 -1 -54 14 -117 33 -141 42 -300 88 -359
103 l-43 11 6 122 c7 127 16 254 21 297 2 14 4 30 4 37 1 6 8 19 17 28 14 14
40 15 218 9 110 -3 209 -8 219 -10z m885 -91 c18 -60 34 -112 36 -118 41 -134
41 -143 2 -179 -81 -77 -496 -244 -698 -281 -40 -8 -92 1 -84 13 2 4 7 45 11
92 3 47 8 99 10 115 2 17 7 93 10 170 4 77 9 142 11 144 2 2 23 5 46 7 158 11
337 47 488 98 69 24 127 44 130 44 3 1 20 -46 38 -105z m-1507 3 c52 -15 56
-19 53 -44 -2 -15 -6 -78 -10 -141 -3 -62 -8 -120 -9 -130 -2 -9 -4 -24 -4
-35 -1 -14 -6 -17 -23 -12 -23 6 -241 53 -287 61 -13 2 -25 6 -28 9 -2 2 7 53
22 113 14 59 33 137 41 173 9 36 17 70 19 77 3 8 30 1 87 -22 46 -18 108 -40
139 -49z m2379 -280 c65 -6 127 -15 218 -32 108 -20 212 -98 232 -175 40 -147
-65 -326 -240 -412 -121 -60 -202 -76 -360 -72 -74 1 -146 5 -160 9 -14 3 -59
13 -100 22 -65 14 -334 92 -580 169 -41 13 -142 44 -224 69 -82 25 -151 48
-153 49 -2 2 16 9 39 16 92 27 317 115 402 158 95 46 135 72 176 109 41 38
207 76 390 90 47 4 86 7 87 8 5 4 203 -2 273 -8z m-2953 -107 c70 -16 175 -41
233 -55 223 -53 920 -242 1010 -273 14 -5 96 -31 183 -57 86 -26 155 -49 153
-51 -7 -7 -149 -21 -296 -28 -188 -9 -241 -14 -370 -35 -153 -25 -231 -7 -363
82 -94 64 -159 90 -225 89 -63 0 -164 -28 -257 -71 -118 -54 -217 -83 -285
-83 -55 -1 -71 3 -108 28 -48 32 -34 33 -187 -15 -42 -13 -106 -23 -160 -26
-79 -3 -96 -1 -140 20 -199 94 -206 328 -12 428 51 26 171 56 255 64 37 3 68
7 70 9 1 1 85 3 187 3 173 2 192 0 312 -29z"/>
<path d="M2005 4090 c-18 -20 -18 -24 4 -158 31 -180 36 -201 49 -203 4 0 16
-2 27 -4 11 -2 28 4 38 13 18 16 19 64 3 138 -2 12 -7 39 -10 60 -6 34 -16 93
-22 117 -1 4 -2 11 -3 16 -2 17 -32 41 -50 41 -10 0 -26 -9 -36 -20z"/>
<path d="M1671 3873 c-12 -8 -21 -24 -21 -37 0 -20 151 -277 188 -318 8 -10
25 -18 37 -18 24 0 55 28 55 50 0 17 -186 316 -203 327 -20 13 -34 12 -56 -4z"/>
<path d="M1389 3459 c-30 -11 -42 -48 -24 -72 11 -15 67 -43 263 -131 88 -40
117 -40 131 -3 17 44 -6 62 -172 138 -88 41 -163 75 -166 76 -3 1 -18 -3 -32
-8z"/>
</g>
</svg>
