<?xml version="1.0" standalone="no"?>
<!DOCTYPE svg PUBLIC "-//W3C//DTD SVG 20010904//EN"
 "http://www.w3.org/TR/2001/REC-SVG-20010904/DTD/svg10.dtd">
<svg version="1.0" xmlns="http://www.w3.org/2000/svg"
 width="1080.000000pt" height="1080.000000pt" viewBox="0 0 1080.000000 1080.000000"
 preserveAspectRatio="xMidYMid meet">
<metadata>
Created by potrace 1.14, written by Peter Selinger 2001-2017
</metadata>
<g transform="translate(0.000000,1080.000000) scale(0.100000,-0.100000)"
fill="#000000" stroke="none">
<path d="M0 9463 l0 -1337 52 51 c29 28 71 60 93 71 22 11 55 34 74 51 19 17
38 31 42 31 4 0 10 13 14 30 3 16 14 32 24 35 22 7 118 108 131 138 6 12 14
29 19 37 5 8 12 24 16 35 5 16 8 17 15 5 5 -8 6 -18 3 -23 -2 -4 2 -22 10 -40
10 -21 19 -99 27 -227 6 -107 16 -235 21 -285 5 -49 14 -144 19 -210 16 -206
17 -216 23 -221 3 -3 19 2 36 10 16 9 40 17 53 17 13 1 16 3 8 5 -12 4 -14 15
-10 57 3 29 10 51 15 50 6 -1 19 -5 30 -8 11 -4 16 -3 10 2 -11 9 -11 14 -24
173 -5 58 -11 119 -14 135 -11 56 -15 100 -23 245 -8 144 -8 145 -17 75 -5
-43 -4 -147 3 -266 11 -195 8 -253 -14 -246 -15 5 -26 109 -52 492 -14 195 -4
559 15 578 6 6 5 18 -1 33 -9 18 -7 29 7 50 9 14 12 23 5 19 -9 -6 -9 -3 -1
14 7 12 9 26 6 31 -3 6 0 10 8 10 10 0 13 -9 11 -27 -1 -15 1 -33 5 -41 4 -8
8 40 8 107 1 93 -3 123 -14 132 -10 9 -12 23 -8 51 5 26 2 46 -7 61 -8 12 -14
27 -13 34 0 18 82 73 110 73 40 0 49 -31 40 -139 -4 -53 -9 -145 -10 -206 -1
-60 -5 -186 -9 -280 -7 -158 -1 -370 25 -875 17 -343 15 -334 79 -355 27 -9
50 -20 50 -24 0 -20 -57 -48 -88 -43 -18 2 -51 0 -75 -6 -45 -12 -119 -1 -125
17 -2 6 -12 11 -23 11 -16 0 -19 -7 -19 -44 0 -33 -4 -45 -17 -48 -34 -7 -14
-108 28 -138 11 -8 -9 -408 -22 -431 -6 -11 -13 -18 -16 -15 -9 8 -36 -24 -39
-47 -6 -42 -31 -97 -40 -90 -5 5 0 -3 11 -17 11 -14 16 -22 11 -18 -8 7 -36
-14 -36 -28 0 -16 -64 -139 -77 -147 -8 -5 -12 -29 -12 -72 1 -64 2 -65 46
-101 24 -20 42 -39 39 -42 -3 -3 6 -15 20 -27 40 -35 98 -230 86 -292 -2 -6 2
-14 8 -18 5 -3 10 -17 10 -31 0 -14 -4 -22 -10 -19 -21 13 -14 -120 8 -153 9
-14 17 -31 18 -37 1 -7 5 -27 9 -45 5 -25 4 -31 -5 -25 -9 5 -11 4 -6 -4 4 -6
11 -9 16 -6 13 8 20 -9 9 -25 -6 -11 -9 -12 -9 -2 0 7 -5 10 -11 7 -6 -4 -8
-14 -5 -22 3 -8 1 -11 -4 -8 -6 3 -10 -1 -10 -9 0 -8 5 -18 11 -21 6 -4 8 -13
5 -21 -3 -8 0 -11 10 -7 11 4 12 9 3 19 -8 10 -8 14 0 14 6 0 12 -4 12 -10 1
-5 3 -14 4 -20 1 -5 3 -33 4 -61 1 -30 5 -48 11 -44 18 11 10 -4 -21 -40 -29
-33 -31 -38 -19 -61 8 -14 25 -30 39 -37 14 -7 25 -20 24 -28 -2 -9 9 -18 30
-24 28 -9 33 -15 38 -52 3 -23 11 -48 18 -57 8 -9 11 -16 8 -16 -3 0 3 -24 14
-52 10 -29 19 -60 19 -68 0 -8 7 -28 16 -45 15 -29 19 -41 30 -95 3 -14 12
-28 19 -33 12 -6 14 -43 12 -197 -1 -140 1 -192 11 -201 14 -15 17 -95 3 -103
-5 -3 -7 -14 -5 -24 3 -9 -2 -34 -11 -55 -13 -33 -24 -41 -46 -39 -4 1 -20
-13 -37 -31 -17 -18 -37 -37 -45 -44 -11 -9 -17 -52 -22 -178 -11 -247 1 -523
30 -715 3 -19 7 -62 10 -95 3 -33 10 -73 15 -90 5 -16 12 -58 15 -93 4 -34 13
-69 21 -76 7 -8 10 -16 7 -20 -4 -3 3 -16 14 -29 22 -24 29 -41 37 -97 3 -20
15 -58 27 -85 12 -26 28 -78 35 -114 27 -129 107 -256 153 -244 34 9 45 41 47
133 3 126 20 500 27 590 2 25 8 62 12 82 5 26 4 38 -4 38 -6 0 -11 -4 -11 -9
0 -5 -6 -11 -13 -14 -21 -8 -22 77 -2 97 9 9 22 16 28 16 6 0 1 7 -11 16 -20
14 -22 21 -18 92 2 42 7 96 11 120 6 34 5 42 -7 42 -19 0 -35 57 -44 154 -3
38 -12 85 -18 105 -17 47 -11 63 20 55 21 -5 24 -3 24 22 -1 16 -7 40 -15 54
-9 15 -15 54 -15 100 0 41 -5 93 -10 115 -5 22 -10 73 -12 112 -2 58 1 76 14
90 16 15 20 15 56 -1 22 -10 57 -35 78 -57 22 -21 45 -38 52 -39 6 0 12 -6 12
-14 0 -17 27 -29 35 -16 8 14 -3 30 -20 30 -29 0 -44 119 -30 238 11 92 12 94
54 133 102 95 119 94 223 -8 66 -66 76 -80 73 -105 -2 -16 -9 -35 -15 -43 -13
-15 -8 -71 9 -103 6 -12 9 -22 5 -22 -19 0 19 -26 40 -28 20 -1 26 3 26 18 0
20 15 28 22 11 2 -4 20 -11 40 -15 36 -6 37 -6 40 26 2 27 8 34 28 36 36 5 50
20 50 53 0 19 -5 29 -15 29 -20 0 -95 68 -95 87 0 7 20 22 44 33 32 13 53 33
80 73 34 51 37 60 38 136 1 95 -4 105 -102 203 -40 40 -78 69 -96 73 -16 3
-37 10 -46 16 -10 5 -44 9 -76 9 -67 0 -220 19 -240 29 -9 5 -4 19 20 50 18
24 39 56 47 70 8 14 29 43 47 63 18 20 51 72 72 115 40 81 73 139 91 160 6 7
11 16 11 22 0 5 4 11 9 13 5 2 11 17 14 33 7 42 31 104 61 161 14 27 26 56 26
65 0 9 9 26 20 39 11 13 20 33 20 45 0 28 29 54 63 57 15 1 27 6 27 11 0 5 6
5 13 0 19 -15 56 -22 63 -12 3 5 10 6 16 3 7 -4 8 -2 4 5 -4 6 -13 8 -19 4 -7
-4 -7 -1 1 9 8 9 21 14 30 11 14 -4 15 -3 2 5 -8 6 -18 8 -22 6 -4 -3 -8 0 -8
5 0 6 7 12 15 12 8 1 21 2 28 3 19 3 47 -13 44 -27 -1 -7 4 -11 11 -9 7 1 20
-4 28 -13 28 -28 120 -12 108 19 -3 7 3 19 13 27 10 7 15 9 11 5 -4 -5 -3 -15
3 -23 13 -14 33 -18 25 -4 -3 5 1 12 10 15 12 5 15 2 10 -9 -3 -9 -2 -13 4
-10 6 3 10 14 10 23 0 15 2 15 10 2 8 -13 10 -12 10 3 0 12 4 16 12 11 7 -5 3
5 -9 20 -13 15 -25 44 -29 63 -4 21 -10 30 -14 23 -5 -8 -9 -7 -13 4 -4 9 -2
16 3 16 5 0 7 8 5 19 -2 12 2 18 13 17 12 -1 16 6 14 20 -2 13 4 24 13 28 11
4 14 2 9 -6 -4 -6 3 -4 16 5 17 12 27 13 36 6 9 -7 16 -5 24 11 11 20 5 44 -9
36 -3 -3 -7 4 -7 15 0 10 4 19 8 19 4 0 8 -6 8 -14 0 -8 5 -18 11 -22 8 -4 9
0 4 15 -5 17 -2 21 15 21 12 0 18 4 15 10 -4 7 15 9 54 6 46 -3 61 0 61 9 0 7
-6 16 -12 18 -10 4 -10 6 0 6 7 1 10 6 7 11 -3 6 2 10 12 10 22 0 83 50 83 68
0 7 4 11 8 8 5 -3 6 15 2 39 -4 25 -4 45 -1 45 3 0 -5 7 -17 16 -12 8 -22 21
-22 27 0 7 5 4 11 -5 12 -22 29 -23 29 -3 0 8 14 17 34 20 21 4 38 16 46 30 7
12 22 28 34 35 28 15 29 40 2 42 -36 2 -41 3 -56 13 -13 8 -13 7 0 -9 13 -17
13 -18 -5 -14 -11 2 -19 10 -18 16 2 7 -2 12 -7 12 -6 0 -4 10 5 23 8 13 12
27 8 30 -3 4 -3 7 2 7 4 0 14 -8 21 -17 12 -17 13 -16 9 4 -2 15 5 29 23 43
15 12 21 19 15 15 -8 -4 -13 0 -13 9 0 9 5 16 10 16 6 0 10 8 10 18 0 9 12 30
26 45 21 24 27 27 40 16 12 -10 15 -10 12 2 -2 8 4 13 15 13 12 -1 17 6 17 27
0 18 7 32 21 39 11 6 18 17 16 23 -2 6 6 19 17 28 22 18 38 121 25 158 -5 12
-1 26 11 39 10 11 16 23 13 26 -4 3 5 6 19 6 31 0 43 24 23 44 -8 7 -15 31
-16 53 -4 55 -19 66 -97 65 -29 0 -40 3 -35 11 4 7 0 7 -9 -1 -9 -8 -19 -9
-22 -4 -7 12 18 34 29 24 4 -4 5 2 3 13 -2 13 9 33 29 54 18 19 33 40 33 46 0
7 7 18 15 25 8 7 12 16 9 21 -3 5 2 10 10 10 9 1 20 2 25 3 6 0 20 12 33 26
17 18 23 36 23 70 0 39 4 46 27 58 24 11 78 73 70 80 -2 1 0 35 4 75 5 39 7
75 6 80 -1 4 4 7 11 7 8 0 7 4 -3 10 -11 7 -11 10 -2 10 7 0 10 5 7 10 -3 6
-1 10 4 10 6 0 11 6 11 14 0 19 26 40 35 26 3 -5 11 -10 17 -10 6 0 1 8 -10
19 -12 10 -22 24 -22 30 0 7 -5 9 -12 5 -7 -4 -1 8 12 26 13 18 19 30 12 26
-16 -10 -16 16 0 32 9 9 9 12 -3 12 -9 1 -7 7 9 19 26 22 28 37 7 58 -8 8 -13
19 -10 24 4 5 1 9 -4 9 -6 0 -11 -6 -11 -14 0 -19 -16 -29 -49 -31 -38 -2 -36
-22 4 -41 20 -9 34 -19 31 -21 -3 -3 -11 -1 -18 3 -7 5 -33 9 -58 9 -45 0 -46
0 -44 -30 1 -16 3 -30 3 -30 1 0 4 -37 5 -81 4 -81 4 -82 -29 -112 -21 -21
-40 -30 -54 -27 -29 5 -91 -85 -91 -133 0 -18 -4 -31 -9 -27 -5 3 -12 1 -16
-5 -3 -5 -17 -10 -29 -10 -13 0 -28 -6 -34 -12 -9 -12 -39 -107 -47 -150 -2
-9 -8 -25 -13 -35 -5 -10 -15 -41 -22 -70 -12 -52 -31 -80 -48 -69 -12 7 -54
-41 -71 -81 -7 -18 -19 -33 -25 -33 -7 0 -30 -18 -52 -40 -22 -23 -49 -40 -62
-40 -12 0 -25 -7 -28 -15 -4 -8 -15 -15 -26 -15 -10 0 -16 -4 -13 -10 3 -5 2
-10 -2 -10 -5 0 -10 -12 -11 -27 -1 -15 -7 -32 -14 -38 -8 -7 -9 -6 -4 3 5 8
-1 12 -21 12 -20 0 -24 -3 -14 -9 16 -10 6 -31 -15 -31 -8 0 -13 4 -10 8 3 5
-1 9 -9 9 -7 0 -12 -8 -10 -18 2 -9 -3 -25 -10 -36 -8 -10 -15 -25 -15 -34 0
-20 -51 -69 -72 -69 -19 0 -50 -39 -42 -52 3 -4 -3 -23 -12 -40 -43 -82 -48
-93 -45 -97 2 -1 -13 -21 -33 -42 -24 -27 -36 -49 -36 -69 0 -17 -3 -30 -7
-30 -5 0 -26 -35 -48 -78 -22 -42 -49 -84 -60 -94 -20 -16 -24 -55 -15 -151 1
-17 -5 -37 -17 -50 -11 -12 -23 -30 -27 -41 -5 -14 -9 -16 -20 -7 -11 9 -15 7
-21 -11 -10 -30 -16 -66 -15 -101 0 -17 -4 -26 -10 -22 -5 3 -10 -3 -10 -15 0
-11 -8 -23 -17 -26 -39 -12 -48 -23 -59 -76 -6 -30 -13 -58 -16 -64 -3 -5 -9
-36 -13 -69 -7 -65 -12 -78 -25 -70 -4 3 -7 -3 -5 -12 1 -10 -4 -28 -11 -40
-8 -13 -11 -23 -8 -23 4 0 0 -8 -9 -17 -8 -10 -18 -36 -22 -58 -4 -22 -15 -51
-24 -65 -9 -14 -17 -34 -17 -45 -3 -40 -4 -44 -24 -50 -11 -3 -20 -13 -20 -21
0 -10 -5 -12 -12 -8 -10 6 -10 4 0 -8 11 -14 10 -17 -5 -20 -12 -2 -17 -13
-18 -33 0 -21 -5 -29 -15 -28 -10 2 -21 -16 -33 -54 -10 -31 -27 -67 -37 -81
-11 -13 -20 -34 -20 -46 0 -12 -26 -48 -62 -86 -49 -52 -62 -61 -66 -47 -5 23
19 107 31 107 5 0 7 14 5 30 -3 17 -1 33 4 36 5 3 6 10 3 15 -4 5 -2 9 2 9 19
0 46 63 54 128 5 32 -3 53 -18 50 -12 -2 -21 -26 -35 -88 -10 -47 -16 -90 -13
-97 2 -7 0 -15 -5 -18 -6 -4 -10 -19 -10 -34 0 -16 -11 -45 -25 -65 -13 -20
-21 -36 -17 -37 4 -1 -4 -4 -18 -8 -14 -4 -25 -11 -26 -16 -1 -6 -7 -25 -14
-43 -15 -39 -39 -47 -126 -39 -68 7 -108 23 -137 55 -10 11 -32 26 -48 32 -16
7 -38 27 -50 46 -18 30 -20 47 -18 161 2 120 21 323 34 364 4 11 8 36 10 56 2
21 6 53 10 71 3 19 -1 59 -9 90 -31 120 -58 383 -72 687 -10 239 -13 316 -13
468 l-1 157 -34 0 c-19 0 -41 7 -48 15 -38 42 -47 57 -30 53 4 -1 19 4 33 10
31 13 86 10 116 -6 12 -7 37 -12 56 -12 20 0 40 -7 48 -16 11 -14 10 -18 -6
-30 -10 -8 -28 -14 -38 -14 -20 0 -20 -5 -12 -197 4 -109 10 -279 12 -378 8
-319 14 -539 15 -575 1 -19 -1 -68 -4 -108 l-6 -72 23 23 c13 12 27 36 30 52
4 17 20 54 36 82 16 29 38 75 48 104 19 49 98 181 113 187 5 2 8 11 8 20 0 10
16 46 35 82 19 35 35 77 35 92 0 17 8 33 20 40 15 9 20 24 20 53 0 23 4 45 8
50 25 30 65 165 81 274 7 41 15 79 20 85 11 15 38 102 46 151 3 22 15 65 26
95 16 43 20 80 21 175 0 136 -2 155 -25 169 -23 15 -28 6 -33 -70 -5 -78 -11
-104 -25 -104 -6 0 -8 4 -5 8 3 5 -3 8 -12 8 -67 0 -82 4 -82 24 0 10 -7 35
-16 54 -11 21 -14 41 -9 53 14 32 14 45 -1 60 -16 17 -17 19 -14 138 2 108 5
146 19 204 5 25 7 49 5 53 -3 5 -5 52 -5 104 1 114 -7 136 -47 125 -15 -5 -41
-6 -57 -4 -25 4 -33 -1 -48 -26 -38 -66 -66 -22 -73 114 -2 49 -6 181 -8 293
-5 215 -1 240 43 291 12 13 21 36 21 51 0 36 25 58 50 43 21 -14 40 1 40 31 0
33 15 49 39 41 17 -5 23 -1 31 20 6 17 20 27 40 32 17 3 35 14 40 23 14 25
132 118 172 134 18 8 42 24 52 35 11 12 25 21 33 21 7 0 13 4 13 9 0 5 39 35
86 68 127 85 122 82 225 164 52 42 113 87 137 99 23 12 44 26 47 30 3 5 25 18
50 30 25 12 53 32 62 44 10 12 57 40 105 63 47 23 111 57 142 77 31 20 58 36
61 36 2 0 42 22 87 48 46 27 105 59 131 73 27 13 67 41 88 62 22 20 58 45 82
54 23 9 49 21 57 28 8 7 22 15 30 19 8 3 29 15 45 26 41 27 91 50 110 50 9 0
27 8 42 17 39 26 182 73 230 77 23 1 49 8 57 15 37 31 134 69 181 72 28 2 77
14 110 28 33 13 78 27 100 31 80 14 209 53 239 71 17 10 45 19 61 19 38 0 172
28 196 41 10 5 51 13 91 18 42 5 -883 9 -2154 10 l-2228 1 0 -1337z m718 226
c13 -34 2 -91 -19 -96 -11 -3 -19 -9 -19 -14 0 -5 -7 -9 -15 -9 -10 0 -15 10
-15 34 0 21 -6 36 -15 40 -14 5 -14 9 0 36 19 37 71 43 83 9z m143 -241 c1 -7
0 -21 -1 -31 -1 -10 3 -49 9 -85 29 -175 52 -657 38 -797 -9 -101 -9 -91 -2
-150 3 -29 1 -56 -5 -65 -20 -29 -30 12 -30 115 1 161 -18 594 -30 665 -5 36
-18 108 -27 160 -22 131 -26 168 -19 185 7 18 65 20 67 3z m-237 -348 c-22 -9
-29 -6 -20 9 4 6 14 7 23 4 15 -6 14 -7 -3 -13z m2180 -1576 c3 -8 2 -12 -4
-9 -6 3 -10 10 -10 16 0 14 7 11 14 -7z m-2057 -15 c15 -6 58 -12 96 -12 38
-1 67 -6 66 -12 -5 -36 -22 -55 -61 -66 -24 -7 -45 -16 -48 -19 -10 -13 -74
-30 -112 -30 -64 0 -118 38 -118 83 0 8 9 26 21 41 18 22 28 26 74 26 30 0 66
-5 82 -11z m573 -39 c0 -5 -4 -10 -10 -10 -5 0 -10 5 -10 10 0 6 5 10 10 10 6
0 10 -4 10 -10z m-12 -92 c-2 -26 -9 -43 -18 -46 -13 -3 -13 -2 0 8 13 10 12
11 -6 7 -17 -4 -20 -1 -16 15 2 11 11 22 18 25 8 3 14 9 14 15 0 5 -4 6 -10 3
-5 -3 -10 -1 -10 4 0 6 7 11 16 11 12 0 15 -9 12 -42z m1483 -103 c6 -5 15
-10 21 -10 6 0 13 -6 16 -14 3 -8 1 -11 -4 -8 -5 3 -8 -18 -7 -46 3 -73 -5
-117 -22 -117 -8 0 -15 -4 -15 -10 0 -14 -23 -13 -37 1 -9 9 -7 24 7 59 10 26
16 51 12 56 -4 4 1 4 11 1 9 -4 17 -2 17 3 0 6 -6 10 -14 10 -8 0 -18 5 -22
12 -11 17 -5 97 9 138 l12 35 3 -50 c2 -27 8 -54 13 -60z m-1542 -41 c14 -31
8 -42 -13 -25 -14 12 -18 51 -5 51 3 0 11 -12 18 -26z m-49 -4 c0 -5 -4 -10
-10 -10 -5 0 -10 5 -10 10 0 6 5 10 10 10 6 0 10 -4 10 -10z m-296 -87 c-1
-20 1 -44 6 -54 5 -9 9 -79 8 -155 0 -77 -2 -260 -3 -409 -1 -148 -3 -280 -3
-292 -2 -24 -27 -32 -33 -10 -8 26 -4 943 4 955 14 21 24 4 21 -35z m184 -397
c3 -19 -7 -41 -31 -72 -20 -25 -38 -63 -42 -85 -4 -21 -11 -41 -16 -45 -14 -8
-10 -34 4 -28 18 7 39 -20 31 -40 -7 -19 -28 -21 -41 -3 -15 18 -23 98 -14
138 5 23 4 46 -4 65 -15 36 -3 64 29 64 13 0 31 9 41 20 24 26 39 21 43 -14z
m1284 -61 c3 -14 -1 -33 -9 -42 -8 -10 -11 -12 -7 -4 5 10 1 11 -15 6 -13 -4
-28 -2 -36 5 -12 10 -12 15 3 36 23 32 58 32 64 -1z m-1882 -96 c0 -17 -4 -28
-10 -24 -5 3 -10 17 -10 31 0 13 5 24 10 24 6 0 10 -14 10 -31z m1916 16 c8
-21 -6 -41 -17 -24 -12 19 -11 39 1 39 6 0 13 -7 16 -15z m131 -20 c-1 -19 -5
-35 -9 -35 -5 0 -11 0 -15 0 -11 0 -11 21 1 48 14 33 26 27 23 -13z m-120
-112 c2 -13 -1 -23 -6 -23 -5 0 -8 -9 -6 -19 2 -13 -2 -18 -13 -16 -9 1 -16 8
-14 14 1 7 -4 19 -12 26 -17 17 -10 55 10 55 8 0 14 6 14 13 1 18 24 -24 27
-50z m-117 -83 c-8 -5 -19 -10 -25 -10 -5 0 -3 5 5 10 8 5 20 10 25 10 6 0 3
-5 -5 -10z m10 -19 c0 -14 -18 -23 -31 -15 -8 4 -7 9 2 15 18 11 29 11 29 0z
m-443 -323 c-3 -8 -6 -5 -6 6 -1 11 2 17 5 13 3 -3 4 -12 1 -19z m-972 -1930
c3 -13 7 -156 10 -318 2 -162 9 -329 15 -370 6 -41 15 -106 20 -145 5 -38 14
-106 20 -150 5 -44 16 -93 22 -110 14 -33 18 -159 6 -171 -8 -7 -76 9 -108 26
-10 4 -17 29 -22 71 -3 35 -11 76 -17 92 -8 21 -8 27 3 27 8 0 15 15 18 38 8
58 0 246 -16 362 -23 166 -28 313 -17 479 8 119 15 159 28 173 21 24 32 23 38
-4z m92 -1418 c1 -36 7 -96 13 -135 7 -38 13 -79 15 -90 2 -11 9 -32 16 -48
15 -34 6 -44 -23 -25 -30 20 -48 97 -47 207 0 46 -5 89 -10 94 -6 6 -11 24
-11 40 0 24 4 28 23 25 20 -3 22 -9 24 -68z"/>
<path d="M3592 8853 c-6 -2 -10 -9 -6 -14 3 -5 0 -9 -5 -9 -6 0 -11 -6 -11
-13 0 -8 -10 -22 -22 -33 l-23 -19 19 23 c11 12 16 22 11 22 -4 0 -2 7 5 15
15 18 -1 20 -18 3 -7 -7 -12 -8 -12 -2 0 5 -5 2 -10 -6 -9 -13 -11 -13 -20 0
-5 8 -10 10 -10 5 0 -6 -12 -11 -27 -10 -21 0 -27 -4 -25 -17 2 -12 -4 -18
-15 -18 -14 0 -18 -9 -20 -42 -1 -23 -6 -44 -12 -46 -6 -2 -9 -7 -6 -12 7 -11
-51 -24 -66 -14 -8 4 -9 3 -5 -4 4 -7 3 -12 -3 -12 -10 0 -26 -56 -22 -79 1
-7 -2 -11 -6 -8 -5 3 -17 -7 -26 -23 -13 -21 -14 -31 -6 -36 7 -4 9 -3 6 3 -4
6 0 13 8 17 8 3 19 -2 24 -12 8 -15 11 -15 28 -2 13 11 31 14 63 10 57 -6 64
-30 22 -74 -31 -33 -37 -55 -48 -176 -5 -64 -10 -79 -35 -105 -16 -17 -29 -38
-29 -47 0 -8 -8 -26 -19 -39 -18 -24 -31 -64 -34 -106 0 -13 -5 -23 -10 -23
-4 0 -6 -4 -2 -9 10 -17 -25 -41 -51 -35 -14 4 -24 2 -22 -2 1 -5 -2 -18 -8
-29 -15 -30 -11 -58 9 -61 9 -1 17 4 17 12 0 8 10 14 23 14 13 0 28 5 34 11 8
8 13 8 18 0 8 -14 29 6 39 37 4 12 20 29 36 38 17 11 32 32 41 58 7 23 19 48
26 57 7 8 13 26 13 40 0 15 18 41 50 73 28 27 50 52 50 57 0 5 5 9 12 9 15 0
138 130 138 145 0 7 17 20 38 31 20 10 46 26 57 35 11 9 52 22 90 29 39 7 82
19 97 26 15 8 41 14 58 14 17 0 39 4 48 9 9 4 64 11 121 15 58 4 108 9 111 11
4 3 6 16 5 30 -2 16 3 29 14 35 10 5 32 22 48 38 23 21 29 32 22 44 -7 12 -4
20 8 28 17 11 17 11 0 6 -10 -3 -28 0 -39 8 -14 10 -28 12 -43 6 -13 -5 -26
-6 -29 -3 -3 4 -6 1 -6 -5 0 -7 -7 -12 -15 -12 -8 0 -16 -6 -16 -12 -3 -28 -4
-34 -14 -48 -18 -27 -54 -41 -74 -31 -10 6 -21 7 -25 4 -3 -3 -6 3 -6 13 0 11
-5 25 -12 32 -17 17 -58 15 -58 -3 0 -8 -5 -15 -12 -15 -6 0 -26 -12 -45 -26
-28 -21 -34 -23 -39 -10 -3 9 -12 16 -20 16 -22 0 -17 16 9 27 19 9 17 10 -18
9 -22 0 -46 -5 -54 -10 -10 -6 -12 -6 -7 2 5 8 -1 12 -18 12 -14 0 -28 5 -32
12 -5 7 -3 8 6 3 8 -5 11 -4 6 3 -4 6 -13 9 -20 6 -20 -8 -46 23 -46 54 0 56
-10 69 -67 91 -57 22 -60 23 -81 14z"/>
<path d="M630 8763 c0 -15 5 -35 10 -43 7 -11 10 -6 10 22 0 20 -4 40 -10 43
-6 4 -10 -6 -10 -22z"/>
<path d="M4365 8690 c3 -5 8 -10 11 -10 2 0 4 5 4 10 0 6 -5 10 -11 10 -5 0
-7 -4 -4 -10z"/>
<path d="M4498 8568 c-36 -13 -36 -28 0 -28 21 0 28 5 28 20 0 11 0 20 -1 19
0 0 -12 -5 -27 -11z"/>
<path d="M4630 8562 c0 -7 -5 -10 -12 -6 -6 4 -8 3 -5 -2 3 -6 23 -10 44 -11
24 0 29 1 13 4 -14 3 -28 10 -32 17 -6 8 -8 7 -8 -2z"/>
<path d="M4928 8523 c12 -2 32 -2 45 0 12 2 2 4 -23 4 -25 0 -35 -2 -22 -4z"/>
<path d="M3326 8512 c-3 -4 4 -9 15 -9 23 -2 25 3 4 10 -8 4 -16 3 -19 -1z"/>
<path d="M3020 8120 c-9 -6 -10 -10 -3 -10 6 0 15 5 18 10 8 12 4 12 -15 0z"/>
<path d="M10755 7979 c-38 -24 -73 -39 -90 -39 -24 0 -45 -12 -45 -25 0 -14
-11 -19 -68 -30 -35 -7 -57 -37 -48 -62 6 -14 10 -13 31 7 29 27 45 19 45 -25
0 -44 18 -48 55 -13 32 29 45 35 45 18 0 -6 12 -16 26 -22 21 -10 25 -18 22
-40 -3 -15 -1 -28 4 -28 9 0 10 16 8 105 -1 54 2 63 30 93 16 18 30 44 30 58
0 28 -5 29 -45 3z"/>
<path d="M10392 7796 c-28 -14 -25 -22 16 -47 l32 -21 10 27 c5 14 10 33 10
41 0 16 -34 17 -68 0z"/>
<path d="M3132 7771 c-8 -4 -13 -11 -13 -15 1 -13 -12 -36 -18 -31 -4 2 -8 -2
-8 -10 0 -16 26 -6 46 19 17 20 11 48 -7 37z"/>
<path d="M10312 7748 c-16 -16 -15 -37 3 -44 8 -4 15 -15 15 -25 0 -27 28 -36
44 -14 16 22 60 16 64 -8 2 -12 -10 -32 -32 -52 -20 -18 -36 -39 -36 -46 0 -8
-16 -25 -36 -39 l-35 -25 5 -75 c10 -150 32 -170 139 -125 34 14 37 14 47 -5
8 -14 21 -20 45 -20 28 0 37 6 50 30 8 16 15 36 15 44 0 21 53 56 87 56 32 0
53 16 53 40 0 8 14 30 30 48 28 31 30 39 30 108 0 59 -3 74 -15 74 -13 0 -17
-7 -14 -26 1 -3 -11 -18 -25 -33 -23 -24 -25 -30 -14 -58 15 -39 -1 -63 -43
-63 -26 0 -29 3 -29 35 0 36 -6 40 -48 29 -16 -5 -23 -13 -21 -28 3 -38 -1
-44 -23 -40 -81 15 -102 15 -124 3 -38 -20 -53 2 -25 37 11 15 21 32 21 39 0
14 43 35 73 35 32 0 46 12 49 40 3 24 1 25 -51 22 -44 -2 -57 1 -73 18 -10 11
-25 20 -33 20 -9 0 -29 14 -47 30 -36 35 -31 33 -46 18z m128 -318 c0 -13 -7
-20 -20 -20 -23 0 -26 10 -8 28 18 18 28 15 28 -8z m100 -80 c0 -5 -4 -10 -10
-10 -5 0 -10 5 -10 10 0 6 5 10 10 10 6 0 10 -4 10 -10z"/>
<path d="M10226 7649 c-15 -18 -14 -19 15 -19 22 0 32 -5 36 -20 4 -16 9 -18
24 -9 30 15 22 35 -20 51 -36 14 -40 14 -55 -3z"/>
<path d="M730 7650 c0 -5 7 -10 16 -10 8 0 12 5 9 10 -3 6 -10 10 -16 10 -5 0
-9 -4 -9 -10z"/>
<path d="M10113 7563 c-15 -5 -18 -43 -3 -43 6 0 10 -13 10 -29 0 -40 13 -45
39 -17 16 17 19 26 11 31 -6 4 -19 19 -28 34 -9 15 -23 26 -29 24z"/>
<path d="M10223 7558 c2 -7 10 -13 17 -13 7 0 15 6 18 13 2 7 -5 12 -18 12
-13 0 -20 -5 -17 -12z"/>
<path d="M10027 7463 c-2 -5 2 -23 10 -42 l14 -33 25 23 c30 28 30 33 -1 47
-30 14 -42 15 -48 5z"/>
<path d="M9920 7389 c-6 -11 -9 -35 -5 -52 4 -23 3 -28 -4 -17 -9 12 -12 12
-28 -1 -10 -8 -31 -21 -46 -29 -15 -7 -37 -29 -48 -47 -12 -19 -39 -43 -60
-54 -21 -10 -39 -23 -39 -27 0 -4 -20 -29 -44 -56 -61 -69 -71 -134 -20 -124
12 2 19 12 19 25 0 13 6 28 13 35 7 7 12 15 12 19 0 14 56 71 97 100 23 16 50
43 60 59 9 17 23 30 30 30 7 0 13 5 13 11 0 5 4 8 9 4 5 -3 19 7 30 22 33 44
39 50 62 67 22 15 22 16 4 36 -23 26 -41 25 -55 -1z"/>
<path d="M10227 7383 c-13 -12 -7 -23 13 -23 11 0 20 7 20 15 0 15 -21 21 -33
8z"/>
<path d="M10764 7310 c-30 -12 -37 -38 -14 -50 36 -19 50 -12 50 25 0 37 -3
39 -36 25z"/>
<path d="M10640 7225 c-19 -24 -40 -44 -46 -45 -24 0 -47 -39 -41 -68 5 -26 4
-29 -19 -24 -35 6 -54 -14 -54 -60 0 -36 2 -39 23 -33 53 15 75 28 80 45 3 11
18 27 34 37 24 14 28 22 22 38 -14 37 -10 45 24 45 41 1 67 21 67 53 0 72 -39
77 -90 12z"/>
<path d="M9990 7174 c0 -41 -2 -45 -21 -42 -18 2 -31 16 -46 46 0 2 -10 -3
-22 -10 -26 -16 -29 -56 -3 -54 11 1 25 -14 39 -44 12 -25 28 -52 35 -60 8 -8
22 -27 31 -42 11 -18 26 -28 41 -28 20 0 25 6 30 44 8 49 38 86 86 106 34 14
42 50 12 50 -10 0 -23 5 -30 12 -12 12 -13 11 -16 -14 -2 -19 -96 -11 -103 9
-3 7 -9 11 -13 8 -5 -3 -6 10 -3 30 4 23 2 35 -6 35 -6 0 -11 -18 -11 -46z"/>
<path d="M10190 6999 c-21 -8 -60 -68 -60 -93 0 -5 11 -21 25 -38 23 -27 25
-28 26 -9 1 12 3 26 4 31 1 6 3 14 4 19 0 4 12 6 25 4 20 -4 26 1 36 31 9 29
9 40 0 51 -14 17 -24 17 -60 4z"/>
<path d="M10421 6987 c-14 -14 -14 -27 2 -60 6 -15 19 -27 27 -27 20 0 42 37
35 58 -7 24 -50 43 -64 29z"/>
<path d="M9467 6950 c-16 -16 -33 -30 -38 -30 -5 0 -9 -5 -9 -11 0 -6 8 -8 18
-5 14 5 17 0 17 -24 0 -31 -9 -36 -34 -21 -17 11 -61 -14 -61 -34 0 -7 -10
-19 -22 -27 -21 -14 -21 -16 -5 -38 23 -33 21 -67 -3 -82 -29 -18 -25 -44 9
-56 17 -6 38 -26 52 -51 12 -23 27 -41 31 -41 5 0 6 -16 2 -35 -5 -29 -3 -36
12 -41 56 -17 69 -51 34 -89 -24 -26 -19 -55 6 -34 43 36 169 80 239 84 27 2
41 7 43 18 5 23 -75 39 -105 21 -12 -8 -33 -14 -47 -14 -14 0 -28 -4 -31 -10
-3 -5 -17 -10 -30 -10 -18 0 -26 7 -31 26 -4 14 -2 30 5 37 22 22 11 29 -34
23 -25 -4 -45 -4 -45 -1 0 8 71 75 79 75 4 0 23 14 44 31 23 19 45 29 57 26
19 -5 71 21 105 54 11 11 31 28 45 38 33 25 23 33 -46 37 -61 3 -70 8 -76 38
-2 14 -13 20 -38 23 -19 2 -51 5 -70 7 -19 3 -40 5 -46 5 -14 1 -24 70 -12 77
5 3 15 0 23 -6 20 -17 47 -5 67 29 20 36 16 41 -36 41 -33 0 -47 -6 -69 -30z"/>
<path d="M10332 6908 c-19 -19 -14 -35 16 -56 30 -22 62 -14 62 14 0 33 -57
63 -78 42z"/>
<path d="M10526 6886 c5 -13 -20 -46 -34 -46 -14 0 -110 -99 -114 -117 -2 -10
-7 -17 -11 -15 -4 1 -22 -11 -40 -28 -17 -16 -35 -30 -39 -30 -5 0 -8 -7 -8
-16 0 -8 -4 -12 -10 -9 -5 3 -10 -1 -10 -9 0 -27 20 -28 49 -3 16 13 47 28 68
32 21 4 45 13 54 21 8 7 32 17 54 21 21 5 39 15 41 23 8 46 44 130 54 127 12
-3 9 16 -8 41 -16 24 -55 31 -46 8z"/>
<path d="M10241 6813 c-24 -25 -24 -26 -6 -59 22 -41 30 -41 73 -5 l33 28 -26
32 c-32 37 -42 38 -74 4z"/>
<path d="M10077 6755 c-4 -8 -15 -15 -26 -15 -19 0 -48 -36 -38 -46 8 -9 67
31 73 49 7 23 -1 34 -9 12z"/>
<path d="M9243 6738 c-30 -18 -51 -53 -40 -65 8 -7 80 64 76 74 -2 5 -18 1
-36 -9z"/>
<path d="M10166 6718 c-19 -11 -22 -68 -4 -86 19 -19 48 -15 48 7 0 11 4 23
10 26 5 3 14 14 19 24 8 15 5 20 -23 28 -21 6 -40 7 -50 1z"/>
<path d="M9863 6691 c-27 -22 -29 -59 -7 -102 18 -35 39 -33 39 4 -1 22 2 24
18 15 12 -6 17 -6 13 0 -3 5 3 12 14 15 27 7 25 30 -4 61 -28 31 -43 32 -73 7z"/>
<path d="M9133 6650 c-9 -14 -10 -21 -1 -26 10 -7 38 21 38 38 0 16 -25 8 -37
-12z"/>
<path d="M10080 6625 c-7 -8 -10 -28 -8 -45 5 -30 1 -34 -38 -31 -30 3 -38
-26 -15 -54 l18 -24 22 20 c11 11 21 25 21 32 0 7 14 24 30 39 36 32 38 51 6
66 -19 9 -27 8 -36 -3z"/>
<path d="M9076 6604 c-10 -27 3 -30 27 -6 l21 22 -21 0 c-11 0 -24 -7 -27 -16z"/>
<path d="M10218 6583 c-12 -3 -16 -12 -14 -26 1 -12 6 -21 9 -19 4 1 11 2 16
2 5 0 11 11 13 25 3 14 2 24 -1 24 -3 -1 -14 -3 -23 -6z"/>
<path d="M9750 6542 c0 -5 11 -14 25 -20 14 -6 25 -17 25 -24 0 -9 3 -9 11 -1
17 17 -7 53 -36 53 -14 0 -25 -4 -25 -8z"/>
<path d="M10146 6509 c-21 -46 -15 -60 14 -34 19 17 29 75 13 75 -5 0 -16 -19
-27 -41z"/>
<path d="M8947 6505 c-4 -8 -2 -17 3 -20 13 -8 52 14 45 26 -9 14 -42 11 -48
-6z"/>
<path d="M9943 6464 c-3 -9 -1 -20 6 -27 17 -17 13 -44 -6 -52 -12 -4 -24 1
-35 14 -19 25 -34 27 -41 6 -5 -12 42 -64 61 -66 4 0 15 -2 24 -4 11 -2 20 7
27 26 6 18 6 27 1 24 -6 -4 -10 1 -10 9 0 8 9 18 21 21 30 10 21 47 -14 56
-21 6 -30 4 -34 -7z"/>
<path d="M2674 6438 c-4 -18 -8 -42 -9 -54 -2 -25 30 -68 44 -60 15 10 23 63
16 106 -9 52 -40 56 -51 8z"/>
<path d="M8871 6448 c-5 -13 -7 -25 -6 -26 8 -9 45 11 45 23 0 7 6 16 13 18 6
3 -1 6 -16 6 -20 1 -30 -5 -36 -21z"/>
<path d="M9254 6413 c7 -30 40 -63 61 -63 17 0 38 27 31 39 -4 5 -20 12 -37
16 -17 4 -33 13 -36 21 -10 26 -25 15 -19 -13z"/>
<path d="M9058 6419 c-21 -12 -23 -41 -6 -69 10 -16 10 -24 1 -40 -11 -16 -10
-21 3 -28 12 -7 16 -25 16 -72 0 -60 2 -66 36 -97 19 -18 37 -33 39 -33 3 0
18 13 34 30 26 26 29 33 21 62 -6 26 -14 34 -36 36 -26 3 -28 6 -24 40 3 20 8
44 12 53 5 11 -3 28 -23 52 -17 19 -31 44 -31 56 0 23 -15 26 -42 10z"/>
<path d="M8750 6340 c0 -11 6 -20 14 -20 20 0 28 27 10 34 -23 9 -24 8 -24
-14z"/>
<path d="M9808 6322 c-3 -24 -7 -27 -38 -27 l-35 0 3 -44 c3 -39 2 -43 -15
-36 -10 5 -31 9 -48 9 -35 1 -45 -23 -19 -48 19 -19 46 -14 76 16 11 11 40 29
64 40 24 10 53 29 64 40 19 21 19 23 3 41 -10 10 -25 23 -35 28 -14 7 -17 4
-20 -19z"/>
<path d="M9424 6300 c-20 -8 -39 -38 -30 -47 2 -2 16 -5 32 -6 24 -2 29 2 35
31 7 34 1 38 -37 22z"/>
<path d="M8676 6275 c-3 -9 0 -15 9 -15 16 0 20 16 6 24 -5 3 -11 -1 -15 -9z"/>
<path d="M9962 6277 c-8 -10 -6 -13 8 -14 13 -1 17 3 13 13 -6 17 -8 17 -21 1z"/>
<path d="M9546 6152 c-7 -11 30 -52 47 -52 20 1 46 25 39 37 -9 15 -78 27 -86
15z"/>
<path d="M8696 6124 c-16 -9 -24 -20 -19 -25 13 -13 51 1 56 22 6 23 1 23 -37
3z"/>
<path d="M8471 6074 c0 -11 3 -14 6 -6 3 7 2 16 -1 19 -3 4 -6 -2 -5 -13z"/>
<path d="M8815 6080 c-6 -10 16 -40 30 -40 4 0 5 10 3 22 -3 24 -23 35 -33 18z"/>
<path d="M9477 6059 c7 -25 30 -36 45 -21 14 14 -7 42 -32 42 -13 0 -17 -5
-13 -21z"/>
<path d="M8910 6034 c-14 -37 -13 -49 10 -69 11 -10 20 -29 20 -42 0 -27 17
-64 34 -75 19 -13 42 -9 64 12 17 16 22 32 22 75 l0 54 -31 -4 c-18 -3 -34 -7
-37 -10 -8 -8 -34 34 -28 44 10 16 -5 41 -25 41 -12 0 -23 -10 -29 -26z"/>
<path d="M8405 6029 c-10 -15 1 -23 20 -15 9 3 13 10 10 16 -8 13 -22 13 -30
-1z"/>
<path d="M9396 6021 c-7 -11 4 -71 13 -71 14 1 53 52 45 59 -15 15 -52 22 -58
12z"/>
<path d="M8352 5972 c-18 -6 -4 -22 19 -22 10 0 19 6 19 13 0 14 -14 17 -38 9z"/>
<path d="M9327 5958 c-6 -20 4 -48 18 -48 15 0 45 27 45 40 0 4 -10 10 -22 14
-32 8 -36 8 -41 -6z"/>
<path d="M8488 5936 c-16 -13 -28 -28 -28 -35 0 -6 -6 -11 -13 -11 -20 0 -40
-44 -32 -69 5 -18 1 -24 -24 -34 -17 -6 -31 -18 -31 -27 0 -26 -30 -60 -54
-60 -12 0 -33 -12 -45 -26 -19 -22 -22 -34 -18 -83 2 -31 8 -66 12 -78 7 -21
4 -23 -31 -23 -53 0 -84 10 -84 25 0 21 -31 10 -45 -15 -9 -17 -22 -24 -46
-24 -40 -1 -46 -15 -19 -44 12 -12 18 -22 15 -22 -4 0 3 -13 14 -29 12 -16 21
-33 21 -37 0 -4 7 -15 16 -25 10 -11 13 -25 9 -38 -8 -28 -19 -26 -33 3 -8 19
-8 26 1 30 7 3 1 4 -13 3 -22 -2 -25 -7 -26 -47 -2 -86 0 -82 -46 -76 -24 3
-56 7 -73 10 -16 2 -39 -1 -50 -8 -11 -7 -33 -16 -49 -20 -39 -10 -71 -37 -72
-61 0 -11 -4 -35 -8 -52 -10 -43 6 -58 64 -62 29 -2 53 -10 68 -24 13 -12 37
-26 55 -32 27 -8 33 -16 39 -53 9 -52 15 -63 31 -56 8 3 14 25 16 52 1 25 4
48 5 50 2 1 22 -3 45 -10 34 -11 41 -17 41 -38 0 -48 22 -75 65 -80 48 -7 75
4 75 30 0 16 7 20 30 20 19 0 30 5 30 14 0 8 14 26 31 39 39 30 34 50 -16 71
-19 8 -35 20 -35 26 0 7 -15 11 -37 9 -55 -3 -63 -1 -63 16 0 10 10 15 29 15
38 0 77 31 68 55 -6 14 -14 16 -38 11 -31 -6 -32 -6 -26 30 8 47 -7 84 -33 84
-11 0 -20 5 -20 10 0 6 5 10 10 10 6 0 10 6 10 14 0 7 7 19 15 26 8 7 15 19
15 27 0 8 7 21 14 29 13 12 21 12 55 2 48 -15 50 -21 16 -36 -32 -15 -31 -25
3 -63 l27 -31 53 28 c56 29 60 38 36 72 -8 12 -17 45 -19 72 -2 27 -9 58 -14
69 -15 27 -14 53 5 90 13 27 14 39 3 80 -16 64 -8 85 32 79 16 -3 32 -1 35 4
11 17 32 7 48 -24 13 -24 25 -33 45 -34 15 -1 41 -11 58 -23 38 -28 64 -24 76
12 14 44 3 60 -39 53 -31 -6 -39 -3 -64 24 -22 24 -34 29 -53 25 -32 -8 -69
11 -65 33 2 12 14 18 38 19 36 2 95 11 119 19 19 6 -3 31 -48 53 -33 15 -36
20 -33 54 4 44 -10 48 -50 13z m-128 -418 c0 -6 -7 -5 -15 2 -8 7 -15 17 -15
22 0 6 7 5 15 -2 8 -7 15 -17 15 -22z m-213 -170 c-3 -7 -5 -2 -5 12 0 14 2
19 5 13 2 -7 2 -19 0 -25z m-27 -193 c0 -20 -5 -25 -25 -25 -18 0 -25 5 -25
18 0 10 3 22 7 25 3 4 15 7 25 7 13 0 18 -7 18 -25z m22 -159 c4 -20 0 -26
-19 -31 -26 -6 -53 13 -53 39 0 11 10 16 34 16 28 0 34 -4 38 -24z m163 -46
c0 -22 -4 -25 -35 -25 -24 0 -42 -7 -55 -22 -27 -30 -51 -29 -72 3 -16 26 -16
27 6 45 15 12 31 17 46 13 13 -3 26 -1 30 6 4 6 23 10 43 8 32 -3 37 -6 37
-28z"/>
<path d="M9237 5904 c-8 -8 20 -64 32 -64 10 0 46 39 40 44 -9 8 -48 26 -57
26 -5 0 -11 -3 -15 -6z"/>
<path d="M8316 5885 c4 -8 8 -15 10 -15 2 0 4 7 4 15 0 8 -4 15 -10 15 -5 0
-7 -7 -4 -15z"/>
<path d="M9507 5874 c-8 -8 1 -24 14 -24 5 0 9 7 9 15 0 15 -12 20 -23 9z"/>
<path d="M8234 5812 c-9 -25 -16 -28 -41 -25 -19 3 -34 -1 -42 -11 -11 -13
-11 -16 2 -16 8 0 18 -6 21 -12 3 -9 8 -8 16 5 6 9 20 17 30 17 22 0 55 44 45
60 -10 17 -20 11 -31 -18z"/>
<path d="M9160 5826 c0 -15 37 -32 47 -22 3 3 3 12 0 21 -8 19 -47 20 -47 1z"/>
<path d="M9094 5765 c-7 -18 12 -45 32 -45 17 0 18 14 4 41 -13 23 -28 25 -36
4z"/>
<path d="M9015 5700 c-9 -27 10 -49 36 -43 30 8 32 20 7 42 -27 26 -35 26 -43
1z"/>
<path d="M8100 5665 c9 -11 17 -12 34 -3 33 17 32 18 -9 18 -32 0 -36 -2 -25
-15z"/>
<path d="M8930 5632 c0 -23 30 -52 53 -52 23 0 21 10 -7 43 -27 31 -46 35 -46
9z"/>
<path d="M8010 5623 c1 -15 28 -43 41 -43 9 1 6 7 -8 19 -12 10 -19 21 -16 25
4 3 1 6 -5 6 -7 0 -12 -3 -12 -7z"/>
<path d="M8855 5580 c-10 -16 23 -60 45 -60 25 0 26 22 3 42 -29 24 -41 29
-48 18z"/>
<path d="M8705 5530 c3 -5 8 -10 11 -10 2 0 4 5 4 10 0 6 -5 10 -11 10 -5 0
-7 -4 -4 -10z"/>
<path d="M8790 5491 c0 -25 14 -41 36 -41 26 0 32 18 12 38 -14 14 -48 16 -48
3z"/>
<path d="M7923 5443 c9 -9 20 -13 24 -9 4 4 1 11 -7 16 -25 16 -35 11 -17 -7z"/>
<path d="M8935 5430 c-3 -5 -1 -10 4 -10 6 0 11 5 11 10 0 6 -2 10 -4 10 -3 0
-8 -4 -11 -10z"/>
<path d="M8561 5404 c0 -11 3 -14 6 -6 3 7 2 16 -1 19 -3 4 -6 -2 -5 -13z"/>
<path d="M8720 5411 c0 -15 28 -33 46 -29 17 3 17 4 0 21 -18 18 -46 23 -46 8z"/>
<path d="M8462 5389 c2 -7 12 -13 22 -15 23 -3 15 20 -8 24 -11 3 -17 -1 -14
-9z"/>
<path d="M8866 5371 c-4 -7 -5 -15 -2 -18 9 -9 19 4 14 18 -4 11 -6 11 -12 0z"/>
<path d="M8676 5325 c4 -8 12 -15 20 -15 8 0 11 6 8 15 -4 8 -12 15 -20 15 -8
0 -11 -6 -8 -15z"/>
<path d="M8821 5314 c-7 -8 -11 -17 -9 -20 3 -2 13 5 23 16 10 11 14 20 9 20
-5 -1 -15 -8 -23 -16z"/>
<path d="M8570 5274 c0 -20 42 -46 51 -32 9 15 -15 45 -36 45 -8 0 -15 -6 -15
-13z"/>
<path d="M7776 5244 c-8 -21 -8 -24 3 -24 12 0 22 28 12 35 -5 3 -12 -2 -15
-11z"/>
<path d="M6295 5240 c-3 -5 1 -10 9 -10 9 0 16 5 16 10 0 6 -4 10 -9 10 -6 0
-13 -4 -16 -10z"/>
<path d="M8494 5198 c-4 -6 1 -17 11 -25 24 -17 34 -17 42 3 10 26 -38 47 -53
22z"/>
<path d="M8256 5141 c-3 -5 1 -11 9 -15 9 -3 15 0 15 9 0 16 -16 20 -24 6z"/>
<path d="M8414 5135 c-24 -17 -11 -32 34 -41 40 -8 45 15 8 39 -20 14 -26 14
-42 2z"/>
<path d="M7659 5133 c-30 -8 -31 -44 -1 -67 29 -23 61 -29 63 -12 7 70 -11 93
-62 79z"/>
<path d="M8346 5055 c-6 -16 28 -35 61 -35 11 0 9 6 -8 25 -28 28 -44 32 -53
10z"/>
<path d="M8513 5042 c-8 -5 -9 -13 -3 -22 7 -12 10 -12 16 3 8 21 3 29 -13 19z"/>
<path d="M8460 4966 c0 -8 -6 -17 -12 -19 -9 -4 -8 -6 3 -6 16 -1 39 17 39 31
0 4 -7 8 -15 8 -8 0 -15 -6 -15 -14z"/>
<path d="M8370 4833 c-8 -2 -21 -6 -27 -8 -9 -3 -4 -13 12 -29 28 -28 65 -43
65 -27 0 6 -4 11 -10 11 -5 0 -10 5 -10 12 0 6 10 3 23 -8 12 -10 19 -15 15
-10 -10 12 11 38 25 29 6 -4 7 -1 2 7 -6 10 -4 12 8 7 10 -3 17 -3 17 2 0 16
-13 21 -27 9 -10 -8 -20 -8 -39 1 -27 12 -31 12 -54 4z"/>
<path d="M8795 4750 c-26 -7 -24 -8 20 -9 36 0 46 2 35 9 -8 5 -17 9 -20 9 -3
-1 -18 -5 -35 -9z"/>
<path d="M9065 4701 c10 -18 58 -37 88 -35 62 3 33 27 -47 38 -33 5 -46 4 -41
-3z"/>
<path d="M460 4645 c0 -12 6 -28 14 -34 12 -10 17 -8 26 9 13 24 8 36 -20 43
-16 4 -20 0 -20 -18z"/>
<path d="M10666 4544 c-20 -42 -20 -54 -3 -54 20 0 47 33 47 57 0 36 -26 34
-44 -3z"/>
<path d="M1556 4517 c3 -10 9 -15 12 -12 3 3 0 11 -7 18 -10 9 -11 8 -5 -6z"/>
<path d="M2892 4501 c-13 -3 -23 -9 -23 -13 1 -5 1 -12 1 -18 0 -11 56 -7 68
5 4 5 2 5 -5 1 -7 -4 -13 1 -15 12 -2 13 -9 17 -26 13z"/>
<path d="M10660 4400 c0 -5 7 -10 15 -10 8 0 15 5 15 10 0 6 -7 10 -15 10 -8
0 -15 -4 -15 -10z"/>
<path d="M10708 4383 c6 -2 18 -2 25 0 6 3 1 5 -13 5 -14 0 -19 -2 -12 -5z"/>
<path d="M3277 4329 c-21 -29 -11 -49 23 -49 24 0 27 4 26 32 -1 40 -27 49
-49 17z"/>
<path d="M3055 4290 c-10 -11 -23 -20 -29 -20 -17 0 -34 -45 -24 -64 11 -19
55 -18 63 2 3 8 3 17 1 21 -3 4 9 8 27 9 40 3 55 17 50 45 -6 32 -62 36 -88 7z"/>
<path d="M3225 4290 c-3 -5 -1 -10 4 -10 6 0 11 5 11 10 0 6 -2 10 -4 10 -3 0
-8 -4 -11 -10z"/>
<path d="M2586 4265 c4 -8 1 -15 -6 -15 -6 0 -8 -6 -4 -12 4 -7 4 -10 -1 -6
-4 4 -17 3 -28 -3 -15 -8 -18 -8 -12 1 5 8 3 11 -6 7 -8 -3 -39 -13 -69 -23
-96 -29 -108 -35 -106 -52 0 -9 8 -20 16 -24 8 -4 -4 -7 -28 -7 -32 -1 -41 -4
-36 -13 4 -8 3 -10 -2 -5 -5 5 -9 14 -9 20 0 5 -6 12 -12 15 -7 2 -13 -4 -13
-13 0 -11 -6 -15 -17 -11 -10 3 -36 -6 -58 -19 -22 -14 -64 -36 -92 -51 -29
-14 -53 -29 -53 -34 0 -4 -16 -15 -36 -25 -24 -11 -34 -21 -30 -31 3 -9 1 -12
-4 -9 -5 3 -18 2 -27 -4 -15 -8 -12 -10 14 -9 20 1 41 10 54 25 13 12 31 23
41 23 11 0 28 4 38 10 14 8 18 6 16 -7 -3 -18 -12 -24 -64 -44 -18 -6 -30 -14
-27 -17 9 -9 -16 -31 -30 -26 -7 3 -23 0 -35 -6 -27 -14 -12 -36 31 -45 49
-11 43 -25 -10 -25 -35 0 -53 5 -59 16 -8 14 -10 14 -21 0 -8 -9 -29 -16 -48
-16 -19 0 -47 -6 -61 -14 -15 -7 -47 -20 -72 -27 -27 -8 -46 -21 -48 -31 -3
-17 19 -26 126 -52 18 -4 65 -11 105 -16 39 -4 113 -15 162 -25 83 -16 113
-23 231 -54 23 -6 70 -11 105 -11 35 0 80 -5 99 -11 111 -35 251 -43 294 -18
16 10 36 15 45 12 13 -4 13 -2 -1 10 -10 8 -18 24 -18 36 0 15 -6 21 -22 21
-20 0 -20 1 -5 13 15 11 14 12 -11 12 -16 0 -29 -5 -29 -12 0 -7 4 -10 9 -7 5
4 4 -4 -4 -15 -12 -20 -20 -22 -95 -19 l-83 2 0 47 c0 57 -8 81 -24 72 -6 -3
-8 -3 -4 2 4 4 2 15 -5 23 -6 9 -7 13 -1 9 6 -3 11 0 11 7 0 8 -7 12 -15 8
-10 -3 -13 -1 -8 6 4 7 3 12 -1 12 -5 0 -9 9 -9 20 0 13 7 20 18 20 10 0 18
-7 18 -15 0 -8 7 -15 15 -15 9 0 18 7 21 15 5 11 24 15 80 15 71 0 75 -1 84
-26 6 -14 10 -37 10 -50 0 -15 4 -23 11 -19 6 4 13 -3 16 -15 3 -12 11 -19 19
-16 7 3 29 8 49 12 26 5 33 9 23 15 -10 7 -9 9 5 9 10 0 17 -8 17 -20 0 -11 3
-20 8 -21 4 0 15 -2 25 -4 19 -4 57 30 57 51 0 17 -49 27 -65 14 -16 -14 -22
-4 -21 35 1 19 6 29 14 27 8 -1 11 2 7 8 -3 6 -11 8 -16 5 -5 -4 -9 1 -9 9 0
8 5 18 12 22 7 5 8 3 3 -6 -5 -9 -2 -10 13 -6 15 5 22 1 27 -15 7 -20 8 -20
17 -5 5 9 14 13 20 10 7 -4 8 -2 4 4 -4 7 6 20 25 31 l31 19 -23 15 c-13 9
-41 19 -62 22 -21 4 -50 20 -67 36 -15 16 -33 29 -39 29 -6 0 -17 -21 -24 -47
-8 -27 -21 -49 -29 -51 -16 -3 -38 32 -41 67 -1 23 -3 23 -72 17 -38 -4 -74
-7 -80 -6 -5 0 -30 2 -54 4 -27 2 -49 9 -56 20 -10 13 -14 14 -18 4 -4 -10 -8
-10 -16 2 -6 8 -11 12 -11 7 0 -11 -66 65 -73 86 -4 12 -1 17 11 18 14 0 14 2
-3 8 -11 5 -24 6 -29 3 -5 -3 -6 1 -1 7 4 7 18 11 31 8 14 -2 27 -1 30 4 2 5
15 5 27 0 12 -5 31 -5 42 0 11 4 32 8 46 8 26 1 69 38 69 60 0 7 -4 9 -10 6
-5 -3 -10 3 -10 14 0 12 -4 21 -10 21 -5 0 -7 -7 -4 -15z"/>
<path d="M1364 4138 c-3 -5 -2 -8 3 -7 4 1 19 1 33 0 20 -1 22 -3 10 -11 -13
-9 -13 -10 1 -10 16 0 39 19 39 32 0 11 -79 7 -86 -4z"/>
<path d="M10758 4125 c-20 -14 -40 -25 -43 -25 -3 0 -41 -20 -85 -45 -44 -25
-86 -45 -93 -45 -8 0 -35 -16 -60 -35 -25 -19 -50 -35 -54 -35 -5 0 -35 -20
-68 -45 -33 -25 -64 -45 -68 -45 -5 0 -27 -16 -50 -35 -22 -19 -49 -35 -60
-35 -10 0 -21 -9 -24 -20 -3 -12 -14 -20 -27 -20 -11 0 -47 -18 -79 -40 -31
-22 -61 -40 -66 -40 -5 0 -22 -10 -38 -23 -15 -12 -41 -29 -56 -37 -16 -8 -45
-29 -65 -48 -19 -19 -58 -44 -86 -57 -28 -12 -60 -30 -71 -39 -11 -9 -83 -57
-160 -107 -236 -155 -290 -191 -300 -204 -6 -7 -37 -26 -70 -44 -61 -31 -98
-53 -173 -104 -23 -15 -66 -38 -95 -52 -30 -13 -77 -40 -106 -59 -29 -20 -58
-36 -65 -36 -6 0 -36 -16 -65 -35 -30 -18 -67 -37 -82 -40 -16 -4 -29 -11 -29
-16 0 -5 -8 -9 -18 -9 -16 0 -59 -32 -126 -92 -11 -10 -24 -18 -30 -18 -15 0
-146 -81 -146 -90 0 -5 -17 -14 -37 -21 -21 -6 -71 -27 -110 -46 -77 -36 -80
-40 -74 -113 1 -14 -8 -36 -20 -48 -18 -20 -27 -22 -67 -16 -26 4 -59 13 -74
20 -15 8 -35 14 -45 14 -10 0 -28 6 -39 14 -11 8 -51 16 -89 19 -127 10 -219
26 -375 67 -192 51 -231 59 -298 59 -30 1 -70 9 -95 21 -24 11 -79 27 -123 34
-121 21 -270 55 -333 76 -31 10 -76 22 -101 25 -25 4 -62 15 -83 25 -21 11
-64 22 -95 25 -80 9 -165 27 -177 37 -5 4 -32 8 -60 8 -28 0 -55 4 -60 9 -10
9 -98 32 -220 57 -96 20 -310 72 -369 90 -27 8 -103 23 -170 35 -67 11 -143
27 -171 34 -27 8 -79 17 -115 21 -36 3 -94 13 -130 21 -36 8 -84 18 -108 23
-24 5 -48 12 -53 16 -6 3 -47 10 -92 15 -156 18 -172 20 -192 29 -31 14 -240
66 -410 101 -33 6 -133 29 -221 50 -89 22 -180 39 -203 39 -23 0 -49 4 -59 9
-17 9 -168 35 -297 51 -83 11 -193 35 -255 57 -25 9 -83 22 -130 29 -47 7 -99
17 -115 23 -17 6 -59 13 -95 15 -36 3 -90 9 -120 15 -30 6 -77 14 -105 18
l-50 6 54 11 c81 16 80 38 0 35 -35 -1 -86 4 -114 11 -27 7 -70 12 -94 12 -25
-1 -51 3 -58 9 -7 6 -56 13 -110 16 -59 3 -106 11 -118 19 -25 18 -58 17 -120
-1 -53 -17 -95 -7 -95 22 0 7 -4 13 -10 13 -5 0 -10 12 -10 28 0 21 -2 24 -10
12 -11 -18 -13 -70 -2 -86 4 -6 48 -20 97 -33 127 -31 195 -51 233 -67 18 -8
50 -17 70 -20 20 -3 58 -12 84 -20 44 -14 138 -33 198 -39 14 -1 43 -6 65 -10
73 -13 432 -98 510 -120 28 -7 95 -19 150 -25 55 -6 152 -24 215 -40 63 -16
157 -35 208 -43 100 -16 179 -55 168 -82 -3 -8 0 -17 6 -21 7 -5 8 -2 3 7 -7
12 -5 12 6 1 17 -16 4 -26 -56 -44 -22 -6 -48 -19 -59 -27 -10 -9 -20 -15 -22
-13 -14 8 -33 -2 -43 -24 l-12 -27 25 17 c32 21 36 20 36 -4 0 -13 7 -20 19
-20 14 0 19 -6 16 -20 -2 -11 3 -27 11 -35 9 -8 12 -20 8 -26 -5 -8 9 -10 50
-6 31 3 56 1 56 -4 0 -5 5 -9 10 -9 6 0 10 7 10 17 0 9 3 14 6 10 4 -3 3 -14
-1 -24 -12 -27 -14 -43 -7 -44 4 -1 18 -3 32 -4 14 -2 36 -8 50 -13 15 -6 38
-6 58 0 25 7 38 6 50 -4 28 -22 61 -38 79 -39 14 0 15 -2 3 -7 -8 -3 19 -12
60 -19 41 -7 100 -18 130 -24 102 -20 181 -18 148 2 -10 7 -10 9 2 9 12 0 12
2 2 9 -9 5 3 10 36 15 55 7 78 2 86 -20 4 -11 -3 -14 -37 -13 -60 2 -67 1 -67
-16 0 -27 44 -38 194 -44 83 -4 160 -12 171 -18 11 -6 56 -14 100 -18 44 -3
107 -15 140 -25 33 -11 85 -21 115 -24 88 -7 187 -23 202 -32 7 -5 38 -12 68
-16 74 -9 128 -22 170 -41 19 -8 78 -20 130 -26 52 -6 127 -16 165 -22 39 -6
95 -12 125 -14 62 -4 100 -14 100 -25 0 -12 64 -32 81 -25 8 2 52 -3 99 -13
93 -19 177 -16 172 6 -1 8 2 11 7 7 6 -3 8 -12 5 -20 -8 -19 41 -31 61 -15 19
16 11 30 -14 23 -14 -3 -19 0 -17 11 1 8 6 19 11 23 4 4 5 2 0 -6 -6 -11 -3
-13 16 -8 13 4 30 7 37 7 6 0 12 9 12 20 0 13 7 20 20 20 11 0 20 -7 20 -16 0
-8 4 -13 9 -10 4 3 17 -1 27 -9 18 -15 18 -15 -1 -8 -11 3 -17 3 -14 -1 4 -4
19 -9 35 -12 37 -7 38 -8 25 -33 -8 -13 -8 -22 -1 -26 6 -4 8 -10 5 -14 -2 -5
14 -11 38 -14 23 -4 65 -13 93 -21 41 -11 59 -12 86 -3 67 24 26 62 -45 43
-31 -9 -41 -8 -44 2 -3 6 -10 12 -17 12 -7 0 -13 7 -13 15 0 18 13 20 20 3 4
-10 8 -10 15 0 11 16 20 16 49 -3 20 -13 23 -13 35 3 17 24 79 27 118 7 17 -9
57 -17 88 -17 39 -1 66 -7 85 -20 15 -11 42 -21 60 -23 29 -4 94 -17 212 -45
22 -5 50 -11 63 -14 35 -8 44 -17 39 -38 -4 -14 -1 -18 9 -14 15 6 15 -15 -1
-26 -6 -5 -3 -8 7 -8 9 0 18 5 20 11 4 13 78 2 78 -12 0 -5 7 -9 16 -9 13 0
14 -3 5 -14 -9 -11 -6 -12 16 -9 33 5 75 24 85 38 7 9 12 -8 9 -28 -3 -17 65
-3 81 17 14 17 20 18 27 8 4 -8 11 -13 15 -13 3 1 6 -2 5 -5 -2 -14 28 -24 70
-24 24 0 69 -6 100 -14 31 -8 81 -14 111 -14 30 0 69 -5 85 -10 17 -6 71 -16
120 -23 50 -6 122 -16 160 -21 39 -5 102 -11 140 -13 64 -3 71 -1 72 16 1 10
-4 19 -10 19 -9 0 -9 2 0 8 9 6 6 11 -8 21 -12 7 -18 8 -14 1 4 -7 -11 -10
-49 -9 -31 1 -59 -1 -63 -4 -10 -10 -33 13 -33 33 0 20 29 31 66 24 46 -8 223
-11 269 -4 40 6 45 5 45 -13 0 -17 5 -19 36 -14 20 3 37 7 38 9 1 2 19 24 39
49 20 25 37 51 37 57 0 6 9 14 20 17 11 3 20 11 20 17 0 6 9 20 20 32 11 12
38 40 60 64 22 23 40 51 40 61 0 25 67 99 93 103 14 2 31 20 47 52 15 27 42
62 61 78 19 16 68 61 110 101 67 63 110 102 176 157 30 25 51 20 59 -13 5 -26
2 -34 -20 -50 -14 -10 -26 -25 -26 -33 0 -8 -4 -14 -10 -14 -5 0 -10 7 -10 15
0 15 -12 20 -23 9 -3 -4 0 -13 8 -21 13 -13 13 -17 -3 -38 -15 -22 -40 -36
-29 -17 3 4 1 17 -4 30 -9 23 -9 23 -52 -20 -24 -24 -46 -51 -50 -61 -3 -9
-17 -21 -30 -26 -17 -7 -27 -21 -32 -48 -5 -21 -8 -41 -7 -45 1 -5 -4 -8 -10
-8 -9 0 -8 -4 2 -10 13 -9 12 -12 -5 -26 -11 -8 -31 -24 -43 -35 -13 -11 -26
-18 -29 -15 -9 9 -43 -14 -43 -29 0 -8 8 -15 19 -15 10 0 24 -7 31 -15 10 -12
6 -16 -22 -23 -26 -7 -32 -13 -31 -31 2 -15 -5 -25 -22 -33 -13 -6 -22 -15
-19 -19 2 -5 -9 -7 -26 -6 -16 1 -30 5 -30 10 0 15 -31 6 -37 -10 -4 -10 -13
-24 -20 -31 -14 -15 -8 -36 8 -26 5 3 8 0 7 -8 -2 -7 3 -12 10 -10 6 1 12 -2
12 -8 0 -5 -7 -10 -15 -10 -8 0 -15 -8 -15 -17 0 -16 2 -16 11 -3 9 13 10 13
6 0 -2 -8 -9 -15 -15 -15 -6 0 -29 -19 -51 -43 -35 -37 -43 -42 -61 -32 -11 6
-18 15 -15 20 3 4 -3 6 -13 3 -21 -5 -22 -34 -3 -57 11 -13 11 -16 0 -16 -11
0 -11 -2 1 -10 22 -14 -12 -24 -55 -16 -24 5 -35 3 -35 -5 0 -7 -3 -9 -7 -6
-11 12 -33 -15 -33 -40 0 -21 4 -25 24 -21 14 3 27 0 29 -6 7 -16 -51 -78 -65
-70 -7 4 -5 10 6 16 9 5 16 17 16 26 0 15 -2 15 -10 2 -8 -12 -10 -10 -8 9 2
13 -2 26 -8 28 -17 6 -23 -44 -8 -72 16 -31 10 -51 -17 -58 -10 -3 -19 -13
-19 -23 0 -33 -152 -201 -178 -196 -10 2 -13 -2 -9 -12 7 -17 -17 -41 -33 -31
-5 3 -10 15 -10 25 0 26 -14 32 -35 16 -17 -12 -18 -18 -6 -56 11 -37 10 -48
-5 -82 -17 -38 -50 -58 -74 -43 -6 4 -78 22 -161 41 -82 18 -155 37 -162 41
-7 4 -50 10 -97 14 -113 9 -216 26 -265 43 -22 8 -60 17 -85 21 -54 7 -150 28
-281 61 -53 13 -146 31 -207 39 -61 8 -119 19 -129 24 -25 13 -100 28 -227 46
-60 9 -116 20 -125 24 -9 5 -43 12 -76 16 -33 4 -75 13 -92 20 -18 8 -74 19
-125 25 -51 5 -111 15 -133 21 -22 5 -71 17 -110 25 -38 8 -115 25 -170 38
-55 13 -138 29 -185 35 -86 12 -144 26 -260 64 -36 11 -99 24 -140 28 -89 10
-196 25 -305 44 -44 8 -118 19 -165 25 -47 7 -93 16 -102 21 -10 5 -33 9 -52
9 -18 0 -49 6 -67 14 -19 7 -64 17 -101 21 -38 3 -68 10 -68 15 0 5 -30 10
-67 13 -80 5 -204 32 -252 54 -23 10 -46 13 -75 8 -83 -13 -191 -13 -233 1
-47 16 -144 31 -278 44 -121 11 -239 40 -307 76 -14 8 -43 14 -63 14 -20 0
-46 5 -57 11 -11 6 -30 12 -42 14 -11 1 -43 9 -71 18 -57 19 -157 43 -228 57
-26 5 -58 18 -72 28 -21 17 -43 20 -167 21 -162 2 -211 8 -201 25 4 6 -2 4
-12 -4 -11 -9 -16 -10 -11 -3 4 8 -3 23 -18 38 -26 26 -34 41 -16 30 6 -3 10
-1 10 5 0 7 6 8 19 0 11 -5 34 -10 51 -10 25 0 31 -4 26 -15 -3 -10 1 -15 14
-15 10 0 22 -4 25 -10 4 -6 59 -10 133 -10 91 0 133 -4 147 -14 19 -12 35 -16
79 -17 10 0 29 -7 42 -16 18 -11 65 -18 167 -24 78 -4 156 -12 172 -18 17 -6
75 -17 130 -26 55 -9 114 -20 131 -26 17 -5 46 -9 65 -9 19 0 62 -8 94 -17 33
-9 103 -18 157 -19 53 -1 107 -8 120 -15 12 -7 52 -16 88 -20 36 -5 94 -12
130 -18 36 -5 103 -12 149 -16 48 -3 103 -14 128 -25 26 -11 66 -19 105 -19
35 0 90 -5 123 -11 33 -6 104 -15 158 -20 54 -6 107 -14 117 -20 10 -5 40 -10
67 -10 63 -1 239 -25 283 -39 19 -6 62 -11 95 -11 33 0 76 -5 95 -11 19 -6 53
-15 75 -19 115 -23 266 -49 315 -55 30 -3 78 -12 105 -20 28 -7 80 -16 116
-19 37 -4 104 -14 150 -24 81 -17 119 -18 119 -4 0 12 -87 43 -165 58 -5 1
-59 7 -120 14 -60 6 -119 16 -130 20 -11 5 -42 11 -70 13 -27 2 -75 11 -105
20 -55 15 -183 36 -355 57 -120 15 -120 15 -193 35 -35 9 -116 20 -180 26
-137 10 -193 18 -207 29 -14 12 -106 27 -359 61 -274 37 -273 37 -294 48 -9 5
-48 12 -87 16 -67 7 -272 56 -295 70 -6 4 -37 11 -68 16 -31 6 -95 16 -142 24
-47 8 -134 19 -195 25 -60 6 -155 17 -210 25 -55 8 -125 16 -155 19 -91 8
-193 24 -225 34 -16 6 -70 14 -120 18 -104 9 -90 7 -135 22 -99 34 -503 72
-589 57 -45 -9 -22 -25 35 -25 23 0 65 -5 95 -10 30 -6 80 -11 111 -12 32 -1
58 -5 58 -9 0 -24 -267 -19 -286 6 -13 18 -34 1 -34 -30 0 -11 -7 -29 -15 -39
-22 -29 -19 -55 8 -60 12 -2 85 -13 162 -25 77 -11 156 -23 175 -27 19 -3 69
-9 110 -14 41 -4 111 -15 155 -24 44 -8 107 -20 140 -25 33 -6 76 -16 95 -22
19 -6 62 -15 95 -19 33 -5 76 -12 95 -15 19 -3 67 -10 105 -16 39 -6 104 -20
145 -31 114 -30 267 -55 345 -57 39 -1 102 -8 140 -16 39 -7 108 -19 155 -25
47 -6 101 -15 120 -20 19 -5 69 -12 110 -15 41 -3 113 -17 160 -31 46 -14 98
-27 115 -29 16 -2 57 -9 90 -15 33 -6 89 -15 125 -21 36 -5 81 -14 100 -19 19
-5 66 -12 104 -15 37 -3 76 -9 85 -14 9 -5 51 -12 94 -16 44 -4 77 -11 77 -18
0 -5 3 -8 6 -4 4 3 23 0 43 -7 61 -23 113 -36 186 -47 38 -5 75 -15 82 -20 17
-15 124 -39 218 -50 117 -13 159 -20 170 -29 6 -4 30 -10 55 -14 25 -4 65 -13
90 -21 25 -7 83 -21 130 -30 99 -20 352 -71 395 -80 17 -4 39 -10 50 -15 21
-9 59 -16 165 -30 36 -5 97 -16 135 -25 39 -9 90 -20 115 -25 25 -4 72 -15
105 -24 33 -9 93 -20 133 -25 40 -5 78 -14 85 -19 7 -5 37 -12 67 -15 74 -8
87 -10 227 -46 66 -17 135 -31 152 -31 17 0 54 -9 83 -20 29 -11 63 -20 75
-20 12 0 24 -4 28 -9 3 -6 27 -7 54 -4 30 3 63 1 83 -7 18 -7 76 -19 128 -26
128 -18 163 -25 177 -36 7 -6 19 -8 27 -5 8 3 16 2 18 -4 2 -5 36 -13 77 -18
40 -5 78 -14 84 -20 28 -28 58 -10 158 92 56 56 125 131 154 167 29 36 68 82
88 102 19 21 47 55 62 75 16 21 40 50 54 65 32 33 61 67 61 71 1 9 159 167
168 167 7 0 12 3 12 8 0 4 28 36 63 72 34 36 78 85 97 108 19 23 40 42 46 42
5 0 20 14 33 31 13 17 25 28 28 25 3 -3 12 2 20 12 14 16 14 16 10 -3 -3 -16
1 -21 17 -23 17 -1 18 1 6 8 -13 8 -12 10 3 10 10 0 15 5 12 10 -4 6 -11 7
-17 4 -7 -4 -8 -2 -4 4 4 6 12 9 19 6 7 -2 19 6 26 19 7 13 18 24 24 25 7 1
26 4 44 8 28 5 31 4 27 -13 -3 -10 -18 -27 -34 -38 -16 -11 -33 -27 -37 -36
-4 -9 -38 -50 -75 -90 -100 -111 -162 -190 -203 -258 -11 -19 -35 -52 -53 -75
-18 -22 -40 -54 -50 -70 -9 -16 -35 -48 -57 -71 -22 -23 -58 -63 -80 -89 -22
-26 -53 -62 -70 -80 -16 -18 -46 -56 -65 -84 -19 -29 -46 -64 -58 -79 -13 -16
-36 -45 -51 -65 -30 -39 -88 -110 -133 -162 -15 -17 -28 -35 -28 -40 0 -10
-96 -124 -124 -148 -12 -10 -29 -18 -38 -18 -22 0 -24 26 -3 34 8 3 15 11 15
18 0 7 18 32 40 56 23 24 40 53 40 66 0 14 16 37 41 60 26 23 39 42 35 52 -3
8 -2 12 4 9 6 -3 10 1 10 10 0 9 18 35 40 57 22 23 40 45 40 49 0 4 9 10 20
14 11 3 27 22 36 40 9 19 42 62 73 97 32 35 60 71 64 81 3 9 12 17 19 17 16 0
41 37 33 49 -3 5 2 12 10 15 8 3 15 9 14 13 -3 20 2 34 10 28 11 -6 101 83
101 100 0 7 18 32 41 56 51 55 60 71 48 90 -5 8 -9 9 -9 2 0 -13 2 -11 -114
-118 -47 -44 -86 -87 -86 -97 0 -9 -31 -48 -69 -86 -38 -37 -77 -82 -87 -98
-25 -39 -102 -141 -136 -178 -16 -17 -28 -35 -28 -41 0 -5 -16 -21 -35 -35
-19 -14 -38 -36 -42 -50 -3 -14 -17 -33 -31 -44 -27 -21 -52 -73 -52 -108 0
-22 -45 -78 -64 -78 -5 0 -20 -10 -32 -21 l-23 -22 -53 21 c-29 12 -75 24
-103 27 -27 4 -90 18 -140 32 -49 14 -115 32 -145 40 -30 7 -64 18 -75 22 -48
19 -216 75 -278 92 -37 10 -73 21 -79 25 -14 9 -266 75 -353 93 -22 5 -47 11
-56 15 -8 4 -62 15 -120 26 -57 11 -138 29 -179 40 -41 11 -111 27 -155 36
-76 15 -101 21 -220 57 -70 21 -133 33 -260 52 -60 9 -137 22 -170 30 -87 21
-171 36 -243 45 -35 4 -69 13 -75 19 -6 6 -30 11 -54 11 -23 0 -60 6 -80 14
-44 16 -71 22 -203 41 -52 8 -115 19 -140 25 -25 5 -63 12 -85 15 -22 2 -76
18 -120 35 -44 16 -89 30 -100 30 -11 0 -51 9 -90 20 -38 11 -86 20 -106 20
-19 0 -63 11 -97 25 -36 15 -81 25 -109 25 -57 0 -176 25 -216 46 -16 7 -49
14 -73 14 -25 0 -44 5 -44 11 0 6 -7 9 -15 5 -9 -3 -35 1 -58 8 -23 8 -62 17
-87 20 -24 4 -49 11 -56 17 -18 15 -140 24 -148 11 -4 -7 8 -13 31 -17 75 -13
110 -25 127 -44 17 -19 17 -20 -21 -23 -40 -3 -41 -3 -174 37 -48 14 -103 26
-123 27 -20 1 -36 5 -36 10 0 4 -9 8 -19 8 -11 0 -22 4 -25 9 -3 4 -34 12 -68
15 -35 4 -74 15 -88 24 -14 8 -35 16 -48 17 -13 0 -28 8 -33 17 -5 9 -24 20
-42 23 -17 4 -38 12 -45 18 -7 5 -39 8 -75 5 -74 -6 -232 13 -249 30 -7 7 -29
12 -50 12 -21 0 -55 7 -76 16 -20 9 -64 22 -97 30 -33 8 -77 19 -97 24 -21 6
-55 14 -75 19 -21 6 -63 17 -93 25 -30 9 -69 16 -88 16 -18 0 -42 5 -54 11
-38 20 -129 31 -458 53 -53 4 -56 3 -58 -21 -2 -30 14 -63 32 -63 8 0 38 -18
67 -40 30 -22 72 -46 94 -52 22 -6 45 -15 52 -20 6 -5 42 -13 80 -18 37 -5 97
-14 133 -21 36 -6 94 -13 130 -15 115 -6 218 -22 251 -40 21 -10 46 -14 70
-11 26 3 42 0 53 -11 10 -10 39 -17 78 -20 35 -2 70 -6 78 -9 8 -3 33 -7 56
-8 22 -1 68 -15 102 -30 33 -15 67 -25 74 -22 7 2 24 -1 38 -8 14 -7 41 -15
60 -17 19 -3 53 -14 75 -25 27 -14 52 -19 78 -15 24 3 68 -5 120 -21 45 -14
89 -26 97 -26 8 -1 44 -6 80 -12 72 -11 180 -25 298 -37 42 -5 97 -16 122 -25
103 -36 262 -77 299 -77 22 0 50 -4 63 -9 63 -25 171 -55 243 -67 108 -18 137
-24 160 -34 11 -5 40 -11 65 -14 25 -2 58 -9 73 -15 16 -6 39 -11 52 -11 13 0
45 -9 72 -21 26 -12 79 -25 116 -29 39 -4 76 -15 86 -24 13 -12 38 -16 97 -16
50 0 89 -6 107 -15 16 -8 43 -13 60 -11 18 2 54 -5 80 -15 26 -11 64 -19 83
-19 19 0 44 -5 55 -11 11 -6 37 -12 57 -14 20 -2 55 -11 77 -21 22 -9 69 -18
105 -20 104 -5 125 -8 123 -19 -3 -16 28 -28 40 -16 17 17 63 13 104 -9 25
-13 57 -20 96 -20 34 0 71 -7 89 -16 19 -10 44 -14 64 -11 22 4 37 1 45 -9 6
-8 17 -14 24 -14 7 0 34 -9 60 -21 38 -17 57 -19 98 -13 55 8 59 8 212 -5 80
-6 111 -13 155 -36 51 -26 88 -37 180 -52 19 -3 44 -12 55 -19 21 -14 152 -62
188 -70 12 -2 42 -7 67 -10 25 -4 70 -17 100 -29 30 -13 82 -29 115 -36 33 -7
82 -26 108 -41 28 -16 63 -28 83 -28 40 0 131 -24 172 -46 15 -8 36 -14 48
-14 12 0 51 -16 87 -35 61 -32 69 -34 89 -21 19 11 92 15 140 7 4 0 5 -11 3
-23 -10 -48 -29 -78 -63 -98 -33 -20 -38 -20 -71 -7 -45 18 -96 33 -141 42
-19 4 -52 15 -72 25 -20 10 -77 28 -125 40 -48 13 -108 32 -133 42 -25 11 -71
22 -103 24 -32 3 -97 19 -145 35 -48 17 -109 37 -136 46 -27 8 -66 26 -87 39
-41 26 -74 31 -84 13 -16 -26 106 -116 190 -142 28 -8 69 -25 93 -37 24 -12
45 -20 48 -17 3 3 21 -3 40 -14 19 -10 53 -19 74 -19 22 0 48 -4 58 -9 58 -30
107 -43 222 -60 25 -4 60 -15 79 -24 19 -9 45 -17 58 -17 13 0 40 -7 60 -15
19 -8 44 -15 55 -15 10 0 30 -7 44 -16 34 -23 100 -13 130 19 12 13 38 34 58
46 19 12 38 31 41 41 4 11 11 20 16 20 17 0 219 210 239 250 13 26 27 40 40
40 11 0 20 -4 20 -9 0 -5 18 -7 40 -4 33 5 45 1 64 -16 13 -12 41 -25 62 -28
39 -6 64 -23 64 -42 0 -13 39 -35 48 -27 3 3 16 -1 29 -9 13 -9 28 -13 34 -9
6 3 43 6 82 6 69 0 70 1 30 10 -40 9 -43 11 -43 43 0 24 -6 38 -19 45 -26 13
-77 13 -104 -1 -16 -9 -22 -9 -25 0 -3 8 -8 9 -16 2 -9 -8 -18 -7 -30 2 -17
13 -17 15 -2 45 9 17 16 43 16 57 0 17 8 29 25 37 14 6 25 15 25 20 0 8 106 1
122 -8 4 -3 5 -11 1 -19 -5 -14 13 -21 40 -16 5 1 6 -3 3 -8 -9 -14 20 -21 53
-11 16 4 33 5 37 2 5 -4 2 2 -6 12 -10 13 -10 17 -2 12 8 -5 12 0 12 14 0 12
4 19 9 16 14 -9 42 5 35 16 -5 7 5 9 27 6 22 -4 47 1 71 13 60 31 145 22 150
-15 5 -33 66 -34 120 -2 36 21 56 25 127 25 51 0 89 5 98 13 10 8 60 14 142
16 119 4 158 13 145 33 -3 5 1 9 8 9 7 0 5 5 -6 12 -13 7 -95 10 -250 8 -465
-5 -554 -3 -716 11 -91 8 -195 14 -232 14 -64 -1 -66 0 -51 17 13 15 19 16 32
5 14 -10 14 -10 4 3 -9 12 -8 22 8 47 17 27 28 33 75 39 45 5 57 3 67 -10 11
-15 54 -23 165 -30 39 -3 60 20 64 72 2 24 7 32 21 32 30 0 62 32 59 59 -2 13
0 21 6 18 5 -4 16 9 25 29 17 34 21 58 32 164 10 96 18 134 32 148 7 7 13 29
13 47 0 19 4 36 9 40 15 8 91 126 91 139 0 7 -5 17 -10 22 -16 16 -1 44 22 44
12 0 32 12 45 26 15 16 31 24 43 21 12 -3 20 1 23 13 3 13 -1 16 -19 12 -40
-7 -42 25 -4 59 52 48 76 60 102 54 19 -5 30 1 56 34 29 36 35 39 57 31 14 -5
25 -6 25 -2 0 4 4 1 9 -6 7 -11 25 -8 96 16 48 17 91 35 94 40 14 21 54 32
118 30 59 -1 78 4 146 35 l77 37 0 230 0 230 -28 0 c-15 0 -33 -5 -39 -11 -9
-9 -19 -9 -40 -1 -42 17 -141 43 -198 52 -64 10 -119 35 -157 70 -15 14 -14
17 5 39 12 13 16 21 10 17 -7 -4 -13 -3 -13 2 0 5 -9 12 -20 15 -14 4 -21 17
-26 56 -4 28 -11 54 -15 57 -19 11 -7 48 26 81 20 20 35 45 35 58 0 21 43 85
63 93 14 7 38 63 31 74 -5 8 -2 9 10 5 10 -4 15 -3 11 3 -3 5 5 21 19 34 14
13 26 31 26 40 0 9 8 16 20 16 22 0 27 15 9 26 -6 3 -36 -18 -67 -49 -32 -30
-67 -64 -79 -76 -13 -12 -23 -27 -23 -35 0 -24 -57 -76 -92 -83 -42 -8 -58
-24 -59 -60 -1 -39 -11 -58 -31 -59 -10 -1 -15 2 -12 8 3 5 1 15 -5 22 -6 7
-9 29 -8 49 5 54 -9 53 -138 -9 -91 -43 -113 -59 -114 -79 0 -12 -41 -20 -41
-8 0 16 95 99 158 139 35 21 82 53 105 70 24 17 76 47 117 67 83 42 200 112
215 130 15 18 73 57 84 57 6 0 37 23 71 51 33 28 75 57 93 65 18 7 47 27 65
43 31 27 33 32 30 85 l-3 56 -37 -25z m-788 -850 c-17 -25 -42 -50 -55 -55
-13 -5 -34 -23 -46 -39 -13 -17 -29 -31 -36 -31 -19 0 -16 36 5 60 34 40 94
100 100 101 23 2 45 8 50 13 3 3 7 4 10 2 2 -3 -10 -25 -28 -51z m60 -96 c0
-4 -11 -6 -25 -6 -14 0 -25 3 -25 8 0 5 11 8 25 7 14 -1 25 -5 25 -9z m-80
-28 c8 -17 5 -23 -18 -36 -16 -10 -37 -28 -48 -42 -10 -14 -62 -69 -115 -122
-93 -94 -96 -96 -122 -83 -15 7 -27 18 -27 25 0 7 4 6 10 -3 5 -8 10 -10 10
-4 0 5 -7 19 -15 30 -20 26 -19 34 4 34 37 0 50 11 45 37 -6 29 46 94 83 105
24 6 24 6 9 -17 -42 -63 2 -74 57 -15 20 22 43 40 51 40 9 0 13 6 10 14 -8 22
14 56 36 56 11 0 24 -9 30 -19z m370 -125 c0 -3 -4 -8 -10 -11 -5 -3 -10 -1
-10 4 0 6 5 11 10 11 6 0 10 -2 10 -4z m-200 -75 c0 -9 -23 -21 -41 -21 -4 0
-6 7 -3 15 7 16 44 21 44 6z m39 -168 c-11 -32 -58 -61 -79 -48 -18 11 21 65
47 65 12 0 25 5 28 11 13 20 15 2 4 -28z m-1339 -58 c-7 -9 -15 -13 -17 -11
-7 7 7 26 19 26 6 0 6 -6 -2 -15z m660 -59 c0 -3 -4 -8 -10 -11 -5 -3 -10 -1
-10 4 0 6 5 11 10 11 6 0 10 -2 10 -4z m-4347 -45 c13 -13 16 -12 -130 -16
-83 -1 -106 1 -117 14 -13 15 -3 16 110 15 79 -1 129 -5 137 -13z m4757 -5 c0
-2 -13 -9 -30 -15 -24 -8 -30 -7 -30 5 0 9 10 14 30 14 17 0 30 -2 30 -4z
m-170 -16 c0 -5 -2 -10 -4 -10 -3 0 -8 5 -11 10 -3 6 -1 10 4 10 6 0 11 -4 11
-10z m-1241 -93 c-9 -7 -14 -17 -12 -24 5 -14 -52 -43 -84 -43 -12 0 -23 2
-23 6 0 10 74 73 81 68 4 -2 12 3 19 12 10 11 16 12 24 4 8 -8 7 -15 -5 -23z
m1254 -9 c-25 -46 -85 -106 -91 -90 -2 7 -8 9 -13 6 -6 -3 -8 15 -7 45 2 28 5
51 8 52 3 0 14 2 25 4 10 2 25 0 31 -6 8 -6 19 -3 35 10 32 25 35 20 12 -21z
m52 32 c3 -5 -1 -10 -10 -10 -9 0 -13 5 -10 10 3 6 8 10 10 10 2 0 7 -4 10
-10z m-185 -66 c0 -8 -5 -12 -10 -9 -6 4 -8 11 -5 16 9 14 15 11 15 -7z
m-3626 0 c9 -3 15 -16 15 -28 -1 -16 -2 -17 -6 -3 -7 28 -18 20 -18 -15 0 -18
-6 -33 -14 -36 -11 -4 -12 2 -7 29 5 19 8 40 9 47 0 14 0 14 21 6z m3324 -36
c2 -9 -5 -18 -14 -22 -22 -9 -27 -2 -19 24 7 23 28 22 33 -2z m-3138 -57 c0
-8 -7 -11 -19 -8 -13 3 -22 -1 -25 -12 -3 -13 -1 27 3 49 1 3 6 -2 11 -10 8
-12 10 -12 10 5 0 17 2 17 10 5 5 -8 10 -21 10 -29z m2080 -11 c0 -13 -7 -20
-20 -20 -22 0 -23 1 -14 24 9 23 34 20 34 -4z m-96 -60 c-10 -4 -21 -6 -24 -3
-8 7 24 22 34 16 5 -4 1 -10 -10 -13z m-4088 -335 c17 -13 16 -14 -13 -4 -34
11 -42 19 -20 19 7 0 22 -7 33 -15z m1084 -264 c0 -8 -68 -6 -76 2 -3 3 -3 10
0 15 6 10 76 -6 76 -17z m140 -7 c36 -9 94 -20 130 -24 66 -9 262 -56 291 -71
17 -8 52 -14 141 -24 25 -3 59 -10 75 -16 15 -6 60 -15 98 -20 87 -11 143 -22
220 -44 33 -10 81 -21 107 -24 25 -4 52 -12 60 -18 11 -10 132 -29 150 -25 4
1 42 -5 85 -13 89 -18 176 -33 215 -39 15 -3 32 -8 38 -11 6 -4 35 -10 63 -15
29 -4 90 -20 137 -35 47 -15 114 -29 150 -31 36 -2 90 -13 120 -24 30 -11 65
-20 77 -20 12 0 24 -4 27 -8 3 -5 31 -14 63 -21 32 -7 73 -19 91 -27 52 -22
150 -54 167 -54 8 0 23 -4 33 -9 27 -15 142 -51 207 -66 33 -7 74 -18 90 -25
17 -6 53 -16 80 -20 106 -18 144 -31 151 -52 11 -35 -10 -43 -68 -24 -29 9
-78 20 -108 25 -30 5 -68 15 -85 22 -16 7 -57 20 -90 29 -33 10 -91 30 -130
45 -38 15 -95 30 -125 35 -30 4 -89 20 -130 35 -41 14 -88 30 -105 35 -16 4
-52 15 -79 25 -26 9 -68 18 -91 19 -24 1 -55 10 -69 19 -14 9 -35 17 -46 17
-11 0 -31 6 -43 14 -12 8 -73 19 -136 26 -63 6 -121 15 -130 20 -9 4 -41 11
-71 14 -30 3 -73 10 -95 16 -83 22 -143 32 -230 39 -98 8 -381 78 -436 107
-19 10 -65 22 -104 25 -38 4 -92 13 -120 19 -56 12 -76 16 -185 31 -41 6 -83
16 -94 21 -10 6 -41 12 -70 15 -28 2 -66 13 -84 24 -23 13 -52 19 -97 19 -51
0 -66 4 -74 18 -6 11 -22 17 -47 17 -43 0 -70 28 -44 45 8 6 24 8 35 5 11 -4
49 -13 85 -21z m3118 -802 c2 -7 -2 -10 -12 -6 -9 3 -16 11 -16 16 0 13 23 5
28 -10z"/>
<path d="M8435 3980 c-16 -7 -17 -9 -3 -9 9 -1 20 4 23 9 7 11 7 11 -20 0z"/>
<path d="M10760 3931 c-20 -29 -18 -39 8 -35 6 1 17 2 22 3 13 1 13 61 1 61
-5 0 -19 -13 -31 -29z"/>
<path d="M1890 3896 c0 -9 30 -14 35 -6 4 6 -3 10 -14 10 -12 0 -21 -2 -21 -4z"/>
<path d="M1101 3794 c0 -11 3 -14 6 -6 3 7 2 16 -1 19 -3 4 -6 -2 -5 -13z"/>
<path d="M10560 3784 c0 -8 5 -12 10 -9 6 4 8 11 5 16 -9 14 -15 11 -15 -7z"/>
<path d="M1616 3771 c-3 -5 1 -11 9 -15 15 -6 29 7 18 18 -9 9 -21 8 -27 -3z"/>
<path d="M3773 3709 c-2 -22 22 -26 30 -5 3 8 -2 16 -12 19 -11 3 -17 -2 -18
-14z"/>
<path d="M2665 3700 c4 -6 11 -8 16 -5 14 9 11 15 -7 15 -8 0 -12 -5 -9 -10z"/>
<path d="M8433 3568 c-14 -17 -12 -48 2 -48 14 0 55 37 55 50 0 14 -46 12 -57
-2z"/>
<path d="M2886 3541 c-3 -5 -23 -8 -43 -7 -21 1 -49 -1 -63 -5 -17 -5 -7 -8
36 -8 43 -1 65 3 74 14 7 8 10 15 7 15 -3 0 -8 -4 -11 -9z"/>
<path d="M10176 3541 c-4 -5 1 -8 9 -7 21 3 31 16 12 16 -9 0 -18 -4 -21 -9z"/>
<path d="M7720 3385 c0 -9 9 -15 24 -15 30 0 42 15 20 24 -27 10 -44 7 -44 -9z"/>
<path d="M4030 3322 c0 -19 56 -47 65 -32 3 4 -2 10 -10 14 -8 3 -15 12 -15
21 0 8 -9 15 -20 15 -13 0 -20 -7 -20 -18z"/>
<path d="M4116 3289 c3 -5 16 -9 30 -9 14 0 23 4 20 9 -3 5 -17 9 -31 9 -13 0
-22 -4 -19 -9z"/>
<path d="M4310 3270 l-35 -7 30 -12 c30 -12 57 -6 57 14 -1 13 -10 14 -52 5z"/>
<path d="M4445 3240 c-7 -12 5 -17 63 -23 46 -6 51 -1 25 19 -21 16 -79 18
-88 4z"/>
<path d="M4606 3195 c10 -8 28 -14 39 -14 18 0 17 1 -5 14 -34 20 -60 20 -34
0z"/>
<path d="M4714 3179 c-3 -5 -15 -9 -26 -9 -33 0 -16 -9 27 -15 21 -2 43 -9 49
-15 13 -13 36 -13 36 0 0 6 -7 10 -16 10 -8 0 -13 4 -10 8 3 4 -8 13 -25 19
-17 7 -31 7 -35 2z"/>
<path d="M8240 3180 c-29 -18 19 -36 52 -19 10 6 16 14 13 20 -8 12 -46 12
-65 -1z"/>
<path d="M5006 3111 c-4 -5 -2 -12 3 -15 5 -4 12 -2 15 3 4 5 2 12 -3 15 -5 4
-12 2 -15 -3z"/>
<path d="M5095 3060 c-6 -9 3 -10 34 -5 23 4 47 3 54 -2 7 -5 39 -15 72 -22
33 -7 90 -22 126 -32 60 -17 71 -17 105 -5 22 8 37 15 34 16 -3 1 -43 8 -90
15 -47 8 -107 19 -135 26 -77 17 -192 23 -200 9z"/>
<path d="M5576 2991 c-8 -12 3 -18 46 -25 14 -2 35 -9 46 -15 12 -6 36 -11 54
-11 l33 0 -38 25 c-41 29 -130 45 -141 26z"/>
<path d="M5785 2940 c-8 -13 -1 -24 14 -19 6 3 7 10 2 18 -6 10 -10 10 -16 1z"/>
<path d="M7780 2915 c-7 -8 -19 -15 -27 -15 -26 0 -123 -53 -128 -70 -6 -20
-45 -58 -45 -44 0 16 -52 8 -62 -9 -5 -9 -16 -17 -23 -17 -8 0 -15 -4 -15 -9
0 -5 -12 -12 -27 -16 -15 -3 -30 -10 -33 -15 -3 -4 -23 -10 -45 -13 -48 -6
-75 -16 -75 -28 0 -5 -18 -9 -41 -9 -47 0 -141 -28 -134 -40 3 -5 24 -11 48
-15 23 -4 57 -14 76 -21 19 -8 57 -17 85 -20 28 -3 58 -8 66 -11 8 -3 58 -12
110 -19 132 -19 173 -25 185 -28 21 -7 30 -6 30 4 0 6 7 15 15 20 29 18 206 8
194 -11 -9 -16 3 -10 17 8 10 11 10 14 2 9 -7 -4 -13 -3 -13 3 0 16 48 25 64
12 10 -9 15 -8 20 4 3 8 12 15 19 15 17 0 145 67 170 88 13 12 15 17 5 24 -10
6 -8 8 4 8 10 0 32 9 50 20 18 11 40 20 48 20 8 0 28 7 44 15 15 8 34 15 40
15 7 0 23 12 37 26 l24 26 -40 -7 c-22 -3 -68 -9 -102 -12 -55 -4 -63 -2 -73
16 -7 14 -21 21 -39 21 -15 0 -31 3 -35 7 -3 4 -28 9 -54 11 -26 2 -54 9 -62
17 -17 14 -84 26 -171 30 -32 2 -66 8 -77 14 -15 8 -23 7 -32 -4z"/>
<path d="M5855 2900 c22 -10 50 -19 63 -19 45 -2 0 25 -53 32 l-50 6 40 -19z"/>
<path d="M6010 2872 c0 -6 28 -15 107 -35 7 -2 16 -6 19 -10 4 -4 26 -7 48 -7
30 0 37 3 26 10 -8 5 -23 10 -33 10 -11 0 -30 9 -44 20 -18 14 -41 20 -74 20
-27 0 -49 -3 -49 -8z"/>
<path d="M6238 2823 c6 -2 18 -2 25 0 6 3 1 5 -13 5 -14 0 -19 -2 -12 -5z"/>
<path d="M6500 2776 c14 -7 36 -17 50 -21 21 -5 20 -3 -8 14 -18 12 -40 21
-50 21 -12 -1 -10 -4 8 -14z"/>
<path d="M7030 2652 c0 -5 7 -13 16 -16 10 -4 14 -1 12 6 -5 15 -28 23 -28 10z"/>
<path d="M1640 2420 c-8 -4 -34 -13 -57 -19 -71 -19 -48 -45 48 -56 40 -4 48
-3 32 4 -35 16 -27 38 20 60 l42 19 -35 1 c-19 0 -42 -4 -50 -9z"/>
<path d="M1415 2311 c-6 -5 -21 -11 -35 -13 -21 -2 -26 -9 -28 -41 -3 -29 1
-38 15 -43 10 -3 34 -12 53 -19 19 -7 60 -18 90 -25 30 -7 89 -24 130 -38 41
-14 122 -30 180 -37 58 -7 130 -20 160 -28 30 -9 100 -25 155 -37 55 -11 122
-27 148 -35 26 -8 78 -20 115 -26 37 -6 72 -15 77 -19 6 -4 44 -10 85 -14 41
-4 114 -20 162 -36 48 -17 99 -30 113 -30 30 0 110 -17 140 -30 11 -5 40 -12
65 -15 25 -4 81 -15 125 -25 44 -10 100 -21 125 -24 25 -3 77 -14 115 -25 39
-10 88 -22 110 -25 40 -7 193 -47 251 -66 17 -6 82 -17 145 -25 63 -7 141 -23
174 -33 80 -27 157 -42 207 -42 35 0 128 -22 254 -61 17 -5 44 -9 60 -9 16 0
54 -7 84 -16 30 -8 70 -19 89 -24 47 -12 61 -28 39 -44 -10 -7 -18 -17 -18
-22 0 -13 -40 -38 -70 -44 -16 -3 -26 -13 -28 -28 -2 -12 -10 -22 -17 -22 -23
0 -26 -17 -13 -59 l12 -40 12 29 c7 16 10 37 7 48 -4 15 2 20 26 25 21 5 31
12 31 25 0 25 18 41 41 35 21 -6 26 -29 8 -35 -6 -2 -13 -24 -14 -48 -2 -35
-9 -50 -34 -72 -26 -23 -30 -32 -21 -47 5 -11 10 -31 10 -45 0 -20 -9 -29 -47
-46 -27 -12 -59 -21 -73 -21 -46 2 -55 1 -86 -5 -21 -4 -36 -15 -43 -31 -17
-36 1 -53 29 -28 18 16 23 17 45 5 14 -7 25 -17 25 -22 0 -16 57 -7 76 12 10
12 28 28 38 38 10 9 26 24 35 32 9 8 22 15 29 16 6 1 20 2 31 2 10 1 35 18 56
36 35 32 37 38 32 76 -3 24 -15 53 -28 66 -32 35 -15 46 67 42 l68 -3 -1 -52
c-2 -50 -1 -51 25 -49 22 3 28 9 32 37 4 27 1 36 -15 44 -24 12 -37 69 -21 90
10 14 14 14 33 -5 27 -24 36 -25 53 -4 8 9 25 14 44 12 25 -2 32 -8 34 -30 3
-29 17 -38 24 -16 3 7 12 9 22 5 35 -14 1 -84 -53 -110 -19 -9 -26 -20 -25
-42 0 -24 -26 -67 -38 -62 -2 1 0 -2 4 -7 5 -6 8 -23 8 -38 0 -23 -4 -28 -24
-28 -25 0 -41 23 -30 43 4 7 -1 4 -11 -5 -24 -22 -14 -44 24 -51 44 -9 56 -1
77 46 24 55 94 164 132 204 25 27 39 33 74 35 88 3 115 0 183 -17 39 -9 93
-20 121 -24 29 -4 58 -12 65 -18 8 -5 26 -13 41 -17 15 -3 33 -12 40 -20 15
-14 101 -31 248 -46 52 -6 102 -14 110 -19 50 -27 269 -19 307 11 18 15 6 28
-25 28 -33 0 -169 30 -272 59 -41 12 -95 26 -120 31 -25 5 -74 17 -110 25 -36
9 -78 18 -95 21 -16 3 -52 11 -80 19 -111 31 -173 45 -230 51 -33 3 -89 13
-125 21 -36 8 -72 16 -80 18 -8 2 -59 15 -114 29 -54 14 -114 26 -132 26 -19
0 -60 8 -92 19 -74 24 -188 49 -283 61 -41 5 -102 17 -135 26 -32 9 -84 22
-114 30 -75 18 -149 40 -183 53 -16 6 -44 11 -63 11 -19 0 -34 5 -34 10 0 6
-9 10 -21 10 -11 0 -53 9 -92 19 -40 11 -103 25 -142 31 -62 9 -129 23 -245
50 -19 5 -62 14 -95 20 -33 6 -94 22 -135 35 -42 13 -103 26 -135 28 -33 3
-118 19 -190 36 -71 16 -189 44 -262 61 -72 16 -153 39 -178 50 -26 11 -65 20
-86 20 -22 0 -53 7 -69 15 -16 8 -44 17 -62 19 -18 3 -46 9 -61 15 -16 6 -42
11 -58 11 -16 0 -46 7 -67 16 -38 18 -104 30 -207 40 -33 4 -64 10 -69 15 -6
5 -26 9 -46 9 -20 0 -45 7 -56 15 -10 8 -38 15 -60 15 -23 0 -58 7 -77 15 -20
8 -50 15 -66 15 -16 0 -33 5 -36 10 -3 6 -42 10 -86 10 -73 0 -84 3 -124 30
-49 34 -48 33 -60 21z m3222 -1317 c-3 -3 -12 -4 -19 -1 -8 3 -5 6 6 6 11 1
17 -2 13 -5z"/>
<path d="M10060 2300 c0 -6 7 -10 15 -10 8 0 15 2 15 4 0 2 -7 6 -15 10 -8 3
-15 1 -15 -4z"/>
<path d="M6932 2238 c2 -17 -3 -24 -22 -28 -14 -3 -26 -11 -27 -17 -2 -7 0
-12 5 -11 4 0 15 -2 25 -7 9 -4 28 -5 42 -3 13 3 23 1 22 -4 -3 -14 87 -39
158 -45 43 -3 57 -2 50 6 -6 6 -38 12 -70 14 -87 6 -112 15 -118 42 -2 14 1
26 7 29 6 2 1 5 -12 5 -13 1 -21 5 -18 10 3 4 -6 13 -20 20 -23 10 -25 9 -22
-11z"/>
<path d="M6737 2234 c-16 -9 -26 -18 -23 -21 3 -3 12 -1 19 5 8 7 17 9 20 5 4
-3 7 -1 7 5 0 6 8 13 18 15 12 3 12 5 2 5 -8 1 -28 -6 -43 -14z"/>
<path d="M7018 2183 c7 -3 16 -2 19 1 4 3 -2 6 -13 5 -11 0 -14 -3 -6 -6z"/>
<path d="M7205 2130 c-3 -5 -1 -10 4 -10 6 0 11 5 11 10 0 6 -2 10 -4 10 -3 0
-8 -4 -11 -10z"/>
<path d="M9315 2101 c-3 -5 -1 -12 5 -16 5 -3 10 1 10 9 0 18 -6 21 -15 7z"/>
<path d="M3700 2086 c0 -2 7 -7 16 -10 8 -3 12 -2 9 4 -6 10 -25 14 -25 6z"/>
<path d="M6345 1980 c3 -5 26 -10 49 -10 24 0 83 -7 132 -16 49 -9 102 -18
118 -21 54 -9 17 14 -41 25 -152 30 -269 40 -258 22z"/>
<path d="M7428 1813 c7 -3 16 -2 19 1 4 3 -2 6 -13 5 -11 0 -14 -3 -6 -6z"/>
<path d="M8559 1750 c-44 -47 -85 -74 -99 -65 -6 4 -61 8 -123 10 -62 2 -152
9 -201 15 -49 6 -91 8 -94 5 -3 -3 2 -5 11 -5 10 0 25 -4 35 -9 32 -17 320
-54 368 -47 34 4 49 2 61 -9 8 -8 19 -12 25 -9 6 4 14 1 18 -6 5 -8 9 -4 13
12 4 12 19 32 35 42 30 20 36 42 19 64 -6 8 -6 17 2 26 9 11 7 14 -12 14 -14
0 -37 -15 -58 -38z"/>
<path d="M4579 1423 c-20 -3 -35 -21 -72 -86 -25 -45 -55 -91 -66 -101 -13
-12 -19 -26 -16 -37 6 -17 1 -28 -42 -96 -10 -16 -23 -41 -29 -58 -6 -16 -15
-39 -19 -50 -5 -11 -4 -17 0 -12 5 4 19 0 32 -8 23 -15 23 -15 17 9 -5 20 1
28 36 49 36 21 39 25 21 30 -30 7 -26 30 9 55 19 14 30 32 30 47 0 13 4 26 9
29 5 4 12 24 16 45 3 22 15 47 26 57 10 9 19 25 19 35 0 10 12 21 31 28 17 6
28 15 24 21 -3 5 6 15 20 20 14 5 23 14 20 20 -6 10 -17 11 -66 3z"/>
<path d="M4646 1163 c-4 -4 -24 -7 -44 -8 -32 0 -37 -3 -37 -24 0 -22 5 -25
47 -27 52 -3 70 10 61 44 -5 23 -14 27 -27 15z"/>
<path d="M9795 1110 c3 -5 11 -10 16 -10 6 0 7 5 4 10 -3 6 -11 10 -16 10 -6
0 -7 -4 -4 -10z"/>
<path d="M5435 1038 c-38 -11 -82 -26 -97 -34 -14 -8 -35 -14 -46 -14 -30 0
-48 -26 -31 -46 10 -13 10 -17 0 -24 -7 -4 -21 -5 -31 -3 -12 3 -20 -2 -25
-16 -8 -25 -34 -28 -41 -3 -18 57 -23 63 -45 52 -17 -10 -19 -17 -14 -50 4
-21 2 -41 -3 -44 -16 -10 -42 4 -42 23 -1 19 -23 51 -36 51 -18 0 -42 -37 -33
-52 4 -7 4 -20 -1 -28 -10 -16 -15 -7 -22 35 -5 31 -52 27 -56 -4 -2 -14 2
-30 10 -35 22 -18 20 -36 -6 -36 -23 0 -34 16 -51 78 -7 24 -40 31 -48 10 -2
-7 0 -26 6 -41 5 -15 7 -30 5 -33 -13 -12 -36 11 -47 47 -9 31 -17 39 -36 39
-21 0 -23 -3 -15 -29 8 -30 3 -44 -17 -49 -8 -1 -13 8 -13 22 0 26 -27 43 -43
27 -6 -6 -11 -25 -12 -43 0 -18 -3 -40 -6 -48 -5 -17 22 -21 146 -20 283 1
438 18 498 53 41 25 54 26 233 33 104 3 199 10 212 15 13 5 41 9 63 9 31 0 50
8 83 34 23 19 64 45 91 57 43 18 47 22 30 29 -11 5 -40 9 -63 9 -36 1 -45 -3
-49 -20 -4 -12 -11 -18 -20 -15 -8 3 -19 6 -25 6 -6 0 -8 11 -6 25 4 18 1 25
-11 26 -9 1 -27 3 -41 4 -14 2 -30 -1 -36 -6 -7 -6 -32 -5 -63 3 -45 10 -53 9
-71 -7 -19 -17 -20 -17 -41 9 -24 31 -39 31 -134 4z m108 -34 c3 -4 2 -14 -3
-24 -7 -14 -17 -16 -42 -11 -26 5 -36 3 -49 -13 -14 -17 -19 -18 -33 -7 -9 7
-16 22 -16 34 0 17 5 19 35 14 19 -3 37 -1 40 4 7 10 58 12 68 3z m-195 -26
c14 -14 16 -68 4 -68 -19 0 -44 39 -37 59 7 24 16 26 33 9z"/>
<path d="M4317 963 c-9 -8 -9 -50 -1 -81 6 -23 7 -22 25 8 18 28 18 32 3 55
-18 28 -18 28 -27 18z"/>
<path d="M5200 940 c0 -13 11 -13 30 0 12 8 11 10 -7 10 -13 0 -23 -4 -23 -10z"/>
<path d="M4570 877 c0 -7 -7 -23 -16 -36 -12 -16 -19 -20 -27 -12 -19 19 -63
12 -82 -13 -11 -15 -33 -26 -57 -30 -45 -7 -47 -17 -12 -45 21 -16 41 -21 91
-21 101 0 143 35 143 119 0 26 -5 41 -16 45 -22 8 -24 8 -24 -7z"/>
</g>
</svg>
